<?xml version="1.0" encoding="UTF-8"?>
<svg xmlns="http://www.w3.org/2000/svg">
  <!-- Game-icons.net, CC BY 3.0。完整署名见 THIRD_PARTY_ASSETS.md。 -->
  <symbol id="gi-ore" viewBox="0 0 512 512"><g fill="currentColor"><path fill="currentColor" d="M344.578 493.54l-117.214-2.024L118.9 338.536l14.355-51.353 35.264 9.38 40.145 42.033-17.467-59.874 23.836-35.358-42.748-104.034 43.165-79.45 72.434 22.468 46.26 80.46-29.474 5-38.478-35.017 22.568 48.064-.672 37.364-26.09 18.224 34.95 1.284 47.145 23.835 28.75-27.874 38.488 19.057 10.647 37.578-18.97-13.784-78.166 39.967-44.983-15.39 5.86-27.153-42.766 3.274 23.573 11.913-9.49 22.943 58.037 31.285 20.34 79.423-15.45 34.73 29.397-20.36 66.83-9.438-71.61 65.81zm-158.524-3.538l-53.48-2.296 27.663-64.006 34.38 49.695-8.563 16.607zm-86.78-37.04l-11.08-34.875-35.503-10.204 34.858-11.09 10.212-35.5 11.09 34.855 35.502 10.22-34.857 11.082-10.22 35.51zm252.983-33.208l-21.565-84.228 72.042-38.99 53.683 59.322-18.665 52.23-85.495 11.666zM169.47 280.677l-59.133-15.612-20.298-69.16 66.064-37.45 36.94 84.126-23.573 38.097zm172.106-38.972l-38.385-19.66 1.574-38.86 43.607-9.917 26.753 39.296-33.547 29.14zm58.845-47.23l-14.234-45.425-46.14-13.46 45.41-14.262 13.46-46.132 14.252 45.41 46.14 13.478-45.41 14.235-13.477 46.156zM327.01 124.9l-28.666-56.762-28.972-7.96 22.645-41.718 29.312 14.278 17.84 59.542-12.16 32.62z"/></g></symbol>
  <symbol id="gi-minerals" viewBox="0 0 512 512"><g fill="currentColor"><path fill="currentColor" d="M263.396 491.136l-21.303-131.13-13.116 127.847-44.258-24.593 49.024-168.947 41.122 67.33 19.665 91.792-31.134 37.7zm-153.69-3.88l-7.82-27.853-27.776-9.022 27.838-7.826 9.02-27.784 7.83 27.845 27.783 9.03-27.844 7.82-9.03 27.79zm60.94-55.476l-28.97-2.242-64.16-105.39-4.148-82.91 78.463 30.34 51.1 67.966-16.398 62.952-63.105-83.046 47.22 112.33zm145.663-28.756l-17.02-2.127-8.508-43.624-14.28-26.774 91.794-91.793 31.15 9.825-13.115 73.764-70.02 80.728zm18.348-41.894l27.27-32.52 9.98-40.923-25.183 32.52-12.067 40.923zM209.74 322.725l-38.527-51.62 22.13-109.025 77.046-95.052 63.105 85.227-6.55 105.735-59.012 60.64-37.7-57.373-20.493 61.468zm47.32-47.25l27.18-94.6 24.738-22.858-28.03 3.85-11.132-43.28-6.558 43.28-45.345 5.516 45.108 16.17-5.96 91.92zm-97.248-19.727l-27.876-44.267 9.84-93.413 31.143 62.286-13.108 75.395zm232.258-22.46l-9.87-35.175-35.077-11.393 35.153-9.887 11.393-35.076 9.886 35.16 35.076 11.402-35.153 9.87-11.41 35.1zm-213.9-97.943l-12.344-43.99-43.876-14.25 43.976-12.365 14.247-43.876L192.54 64.84l43.867 14.263-43.968 12.35-14.27 43.892z"/></g></symbol>
  <symbol id="gi-coal" viewBox="0 0 512 512"><g fill="currentColor"><path fill="currentColor" d="M367.5 18l-45.2 135.5c6 1.5 11.8 3.4 17.1 5.7L386.5 18zm-73.1 150.5c-12.3 0-26.2 1.8-28.5 9L247.6 232l-1.1.2-38.9-25.9-47.9 44.4-53.3 19.3 6.8 41.3L62 334.9l4.02 74.1-55.45 34.2 78.9 33.1 83.23-10.5 67.1 31.5 76-10.6 26.7-24.3L424 492l69.2-28.7-34.4-56.1-31.1-15.8 21.1-19.3-40.4-82.5-62.5-4.5 24.3-72.8c-1-15.5-20.3-27.8-32.4-34L309.3 223c-1.1 1.5-.9.5-1.2-.9l4.1-52.3c-3.5-.6-10.3-1.3-17.8-1.3zm-85 60.6l33.1 22.1 53.9-8.8 14.4 47.7-35.6 23.1-43.2-16.6 40.6 48.7 60.6-43.1 63.6 4.6 13.4 27.2-58.9 14.6 67.6 3.1 7.9 16.2-30.3 27.9 49.7 25.2 20.6 33.7-43.2 17.9-85.1-30.8-30.7 27.9-65.2 9-66.9-31.5-83.71 10.7-42.16-17.7 34.75-21.4-3.94-72.7L119 328.4l33.6 39.5 35.7-31.1-39 2.7-16.3-18.6-6.4-39.1 22.9-8.3 45.6 1.7-20-14.3zm138.2 162l-66.2 20.2-36.5-14.4 50.4 43zm-230.3 17.6l40.2 24.7 56.5-2.8z"/></g></symbol>
  <symbol id="gi-stone" viewBox="0 0 512 512"><g fill="currentColor"><path fill="currentColor" d="M317.727 108.904l-95.192 96.592-26.93 86.815 17.54 36.723 20.417 9.287 33.182-55.082 11.297-3.61 61.75 26.85 20.26-12.998 4.47-43.7 11.42 53.634-10.622 14.162 3.772 1.64 5.238 6.5 6.832 34.343 55.977-66.775 13.98.23 22.397 28.575-9.453-52.244L434.01 166.81l-116.28-57.906zM123.61 120.896L94.08 173l-4.603 27.62 25.98-8.442 11.704 7.377.084.634 28.295 59.865 13.773-4.543 10.94 4.668 3.922 8.21 19.517-62.917-1.074-33.336-40.15-.522-29.732-23.78 34.06 10.888 42.49-7.727 26.034 15.88 36.282-36.815c-2.777-1.18-5.615-2.356-8.58-3.52l-79.58 10.126-3.528-.25-56.307-15.52zm249.33 36.422l47.058 66.02 2.107 62.51-25.283-59.698-65.322-60.404 41.44-8.428zm-262.2 55.32l-64.234 20.876-16.71 78.552 50.794 5.582.596-7.14 37.662-36.707-8.108-61.16zm56.688 62.45l-36.44 12.016-31.644 30.84 22.588 30.867 57.326 1.74 16.5-16.16-28.33-59.302zm110.666 24.19l-44.307 73.546-.033 57.14 97.264 12.216 44.242-19.528-17.666-88.806-79.5-34.567zM443.8 313.36l-46.843 55.876.287 1.774 65.147 13.887 25.78-14.926-44.37-56.613zm-138.382 15.89l39.23 22.842 13.41 50.658-26.82 23.838-45.015-2.553 38.562-28.242 2.483-39.23-21.85-27.312zm-238.37 53.838l-8.77 28.51 13.152 48.498 91.037-11.91 1.32-26.418-62.582-31.995-34.156-6.684z"/></g></symbol>
  <symbol id="gi-water" viewBox="0 0 512 512"><g fill="currentColor"><path fill="currentColor" d="M406.043 316c24.11 96.443-50.59 180-150 180s-174.405-82.38-150-180c15-60 90-150 150-300 60 150 135 240 150 300z"/></g></symbol>
  <symbol id="gi-oil" viewBox="0 0 512 512"><g fill="currentColor"><path fill="currentColor" d="M411 68.31v.7c0 25.9-53.6 46.99-155 46.99-106.5 0-155-21.09-155-46.99v-1.2c0-15 16.7-26.9 49.7-35.3 28.2-7.2 65.6-11.1 105.3-11.1 39.6 0 77 3.9 105.3 11.1 33 8.4 49.7 20.3 49.7 35.3zm-177-.5c0-4.2-13.2-7.5-29.4-7.5-16.3 0-29.5 3.3-29.5 7.5 0 4.1 13.2 7.5 29.5 7.5 16.2 0 29.4-3.4 29.4-7.5zm167.6 97.89v-60.2c-8.7 6.6-21.9 12.2-39.6 16.7-28.5 7.3-66.1 11.2-106 11.2-39.9 0-77.5-4-106-11.2-17.7-4.5-30.9-10-39.6-16.7v60.2c-6.3 5.3-9.4 11.2-9.4 17.7v1.1c0 25.9 48.5 46.9 155 46.9 101.4 0 155-21 155-46.9v-1.1c0-6.5-3.1-12.4-9.4-17.7zm0 128.9v-73.5c-8.7 6.6-21.9 12.2-39.6 16.7-28.5 7.2-66.1 11.2-106 11.2-39.9 0-77.5-4-106-11.2-17.7-4.5-30.9-10.1-39.6-16.7v73.5c-6.3 5.3-9.4 11.2-9.4 17.7v.9c0 25.9 48.5 46.9 155 46.9 101.4 0 155-21 155-46.9v-.9c0-6.6-3.1-12.5-9.4-17.7zm8.9 145.4c-1.1-4.9-4-9.4-8.9-13.5V350c-8.7 6.6-21.9 12.2-39.6 16.7-28.5 7.2-66.1 11.2-106 11.2-39.9 0-77.5-4-106-11.2-17.7-4.5-30.9-10.1-39.6-16.7v76.5c-4.9 4.1-7.8 8.6-8.9 13.5-.3 1.2-.5 2.5-.5 3.7v.5c0 5.7 2.3 10.9 7 15.6 17 18 64.8 30.8 148 30.8 60.2 0 103.6-7.4 128.9-18.9 17.3-7.5 26.1-16.6 26.1-27.5v-.5c0-1.2-.2-2.5-.5-3.7z"/></g></symbol>
  <symbol id="gi-uranium" viewBox="0 0 512 512"><g fill="currentColor"><path fill="currentColor" d="M253.78 17.188c-130.728 0-236.905 106.177-236.905 236.906C16.875 384.824 123.052 491 253.78 491c130.73 0 236.907-106.18 236.907-236.906 0-130.73-106.177-236.906-236.906-236.906zm0 18.687c120.63 0 218.22 97.59 218.22 218.22 0 120.626-97.59 218.218-218.22 218.218-120.628 0-218.218-97.59-218.218-218.22s97.59-218.218 218.22-218.218zm101.19 46.313L278.56 215.063c15.916 9.635 25.177 26.33 26.125 43.78h148.407c1.644-70.01-33.49-138.867-98.125-176.656zm-205.126 2.468c-27.1 16.725-50.68 40.147-67.72 69.656-19.01 32.928-26.926 69.12-26 104.532H196c.41-8.353 2.737-16.73 7.188-24.438 5.21-9.024 12.64-16 21.218-20.625L149.844 84.657zm100.594 141.156c-.864-.002-1.736.035-2.594.094-11.446.793-22.288 7.084-28.5 17.844-9.94 17.216-4.09 38.967 13.125 48.906 17.213 9.94 38.935 4.12 48.874-13.094 9.94-17.215 4.12-38.967-13.094-48.906-5.648-3.26-11.768-4.824-17.813-4.844zm28.218 82.375c-16.127 9.75-36.864 10.846-54.406 1.25l-68.03 117.22c29.454 16.785 61.044 25.177 92.75 26 34.567.898 68.72-7.786 99.124-24.032l-69.438-120.438z"/></g></symbol>
  <symbol id="gi-drop" viewBox="0 0 512 512"><g fill="currentColor"><path fill="currentColor" d="M263.844 40.344C234.1 213.202 145.594 248.03 145.594 369.22c0 60.804 60.106 105.5 118.25 105.5 59.45 0 115.937-41.803 115.937-99.533 0-116.332-85.2-162.312-115.936-334.843zm-58.28 217.094c-27.963 75.53-5.105 154.567 54.25 179.375 15.185 6.348 31.724 7.714 47.905 6.28-116.134 49.787-185.836-79.816-102.158-185.656z"/></g></symbol>
  <symbol id="gi-fuel" viewBox="0 0 512 512"><g fill="currentColor"><path fill="currentColor" d="M288 133v18h160v-18H288zm41 34v16h78v-16h-78zM64 201c-5.75 0-10.406 1.939-15.074 6.023-4.668 4.085-9.078 10.48-12.701 18.631C28.978 241.96 25 265 25 288s3.978 46.041 11.225 62.346c3.623 8.152 8.033 14.546 12.7 18.63C53.595 373.062 58.25 375 64 375h5.055l2-17.994.89-8.006h80.11l2.888 26H183V201H64zm137 0v46h46v-46h-46zm64 0v174h28.055l2-17.994.89-8.006h80.11l2.888 26H448c5.75 0 10.406-1.94 15.074-6.023 4.668-4.085 9.08-10.48 12.703-18.631 7.247-16.304 11.225-39.343 11.225-62.342 0-23-3.976-46.04-11.223-62.344-3.623-8.152-8.034-14.55-12.703-18.635-4.668-4.084-9.326-6.024-15.076-6.025H265zm-64 64v46h46v-46h-46zm0 64v46h46v-46h-46zM88.057 367l-14 126h75.886l-13.998-126H88.057zm224 0l-14 126h75.886l-13.998-126h-47.888zM183 384v110h18v-37h46v37h18V384h-18v55h-46v-55h-18zm226 9v30h30v-30h-30zm6.803 48c5.844 19.928 16.417 32.884 28.318 40.563C462.214 493.235 482 493 490 493v-18c-8 0-23.214-.235-36.121-8.563-7.548-4.87-14.772-12.42-19.473-25.437h-18.603z"/></g></symbol>
  <symbol id="gi-plate" viewBox="0 0 512 512"><g fill="currentColor"><path fill="currentColor" d="M88 32v16H72V34.67L32 48v14.31l40-13.33v16.87L32 79.18V188l40-13.3V286h16V175.5l384 169v112l-384-169V346H72v-59.3L32 300v59.6l40-13.4v16.9l-40 13.3v15.2l40-13.4v16.9l-40 13.3V464l40 13.3V396h16v-17.2L282.7 464h-39.8L88 396.2V480h400V32h-16zm0 16.71L472 215.1v17.3L88 66.14V174H72V66h16zm0 298.09L351.6 464h-39.2L88 364.3V378H72v-14h16z"/></g></symbol>
  <symbol id="gi-brick" viewBox="0 0 512 512"><g fill="currentColor"><path fill="currentColor" d="M233.986 85.262l-63.37 21.11L334.32 160.9l63.373-21.11-163.707-54.53zm-82.85 33.593v58.088l174.184 58.02v-58.086l-174.183-58.022zm-18 50.215l-53.71 17.89 162.63 54.175 22.417-7.467-125.18-41.7a9 9 0 0 1-6.156-8.536V169.07zm-73.19 30.375v58.088l122.286 40.733v-30.71a9 9 0 0 1 .018-.357 9 9 0 0 1 .01-.192 9 9 0 0 1 .07-.697 9 9 0 0 1 .03-.205 9 9 0 0 1 .134-.66 9 9 0 0 1 .06-.236 9 9 0 0 1 .19-.616 9 9 0 0 1 .092-.248 9 9 0 0 1 .238-.567 9 9 0 0 1 .135-.282 9 9 0 0 1 .265-.488 9 9 0 0 1 .197-.32 9 9 0 0 1 .28-.41 9 9 0 0 1 .26-.342 9 9 0 0 1 .288-.344 9 9 0 0 1 .318-.342 9 9 0 0 1 .3-.29 9 9 0 0 1 .374-.33 9 9 0 0 1 .3-.237 9 9 0 0 1 .438-.315 9 9 0 0 1 .286-.182 9 9 0 0 1 .502-.29 9 9 0 0 1 .26-.133 9 9 0 0 1 .59-.262 9 9 0 0 1 .21-.082 9 9 0 0 1 .317-.122l25.18-8.387-153.628-51.175zm364.847 27.352l-87.63 29.19a9 9 0 0 1-.247.07 9 9 0 0 1-.355.1 9 9 0 0 1-.443.1 9 9 0 0 1-.47.085 9 9 0 0 1-.4.05 9 9 0 0 1-.49.038 9 9 0 0 1-.423.007 9 9 0 0 1-.48-.01 9 9 0 0 1-.397-.03 9 9 0 0 1-.504-.06 9 9 0 0 1-.38-.07 9 9 0 0 1-.52-.117 9 9 0 0 1-.31-.087 9 9 0 0 1-.268-.077l-38.526-12.834-73.23 24.395 63.368 21.11 163.707-54.532-22.002-7.328zm-224.56 53.242v58.085l73.85 24.602v-36.225l.005.002V304.63l-2.752-.915-.014.004-71.09-23.68zm-85.174 14.82L58.57 313.68l63.373 21.11 56.485-18.817-63.37-21.11zM39.095 326.17v58.088l73.85 24.6v-58.088l-73.85-24.6zm390.207 9.816l-63.375 21.112 36.283 12.086 63.374-21.112-36.28-12.086zM219.03 363.36v21.86l174.183 58.022v-58.088L337.45 366.58l-51.516 17.162a9 9 0 0 1-.19.053 9 9 0 0 1-.467.133 9 9 0 0 1-.332.074 9 9 0 0 1-.588.107 9 9 0 0 1-.253.03 9 9 0 0 1-.674.053 9 9 0 0 1-.196.004 9 9 0 0 1-.693-.013 9 9 0 0 1-.206-.016 9 9 0 0 1-.723-.09 9 9 0 0 1-.122-.02 9 9 0 0 1-.795-.18 9 9 0 0 1-.025-.007 9 9 0 0 1-.432-.122l-61.207-20.39z"/></g></symbol>
  <symbol id="gi-metal" viewBox="0 0 512 512"><g fill="currentColor"><path fill="currentColor" d="M322.248 85.684L61.432 224.717l-41.145 109.94 7.233 3.85 153.673 81.8 308.495-164.215-37.752-99.903-129.688-70.506zm119.035 95.187l25.11 66.45-102.56 54.594L430.39 186.64l10.893-5.77zm-89.576 47.417L284.957 343.9l-41.67 22.182 72.195-118.62 36.225-19.175zM72.38 248.78l28.21 14.933-54.012 54.012L72.38 248.78zm210.827 15.767L211.19 382.87l.26.16-17.208 9.16 5.795-83.618 83.17-44.025zm-165.334 8.312l16.963 8.98-60.445 60.445-16.93-9.012 60.413-60.414zM181.42 306.9l-6.174 89.07-54.1-28.798 60.274-60.272z"/></g></symbol>
  <symbol id="gi-molecule" viewBox="0 0 512 512"><g fill="currentColor"><path fill="currentColor" d="M106.875 16l-4.656 2.688-69.907 40.218-4.688 2.688v91.281l4.688 2.688 64.468 37.093-.06 37.78c-15.19 3.762-26.564 17.585-26.564 33.876 0 19.15 15.725 34.875 34.875 34.875 19.152 0 34.876-15.724 34.876-34.875 0-15.55-10.35-28.863-24.5-33.312l.063-37.47 42.093-24.218L237 216.406v58.625l4.688 2.69 34.093 19.624v.25h.47l22 12.656-51.906 29.875-48.188-27.72c.227-1.367.375-2.754.375-4.186 0-14.102-11.43-25.533-25.53-25.533-14.1 0-25.53 11.43-25.53 25.532 0 14.1 11.43 25.53 25.53 25.53 5.86 0 11.254-1.994 15.563-5.313L237 356.313v23l-59.53-.156c-1.688-6.323-5.76-12.032-11.876-15.562-12.212-7.05-27.825-2.837-34.875 9.375-7.052 12.21-2.87 27.823 9.343 34.874 12.21 7.05 27.824 2.867 34.875-9.344.124-.215.226-.44.343-.656L237 398v27.78l-43.344 24.94c-4.61-4.55-10.95-7.376-17.937-7.376-14.102 0-25.532 11.43-25.532 25.53 0 14.102 11.43 25.532 25.53 25.532 14.1 0 25.532-11.43 25.532-25.53 0-.316-.02-.626-.03-.938l44.968-25.875 65.406 37.625 4.656 2.687 4.656-2.688 69.906-40.218 4.688-2.69V345.5l-4.688-2.688-56.562-32.562 56.563-32.53 4.687-2.69v-79.435l51.563-29.657c4.26 3.185 9.552 5.093 15.28 5.093 14.1 0 25.532-11.43 25.532-25.53 0-14.1-11.43-25.53-25.53-25.53-14.102 0-25.533 11.43-25.533 25.53 0 1.553.14 3.055.407 4.53l-50.158 28.876-61.625-35.47-.093-55.186c14.1-4.478 24.406-17.767 24.406-33.28 0-19.152-15.725-34.876-34.875-34.876S280 35.818 280 54.97c0 16.322 11.423 30.145 26.656 33.874l.094 54.78-42.594 24.532-78.03-45.97V61.596l-4.69-2.688L146.814 39l-.53-.938-.532.313-34.22-19.688L106.876 16zm0 21.563l20.188 11.624L71.97 81.094l-4.657 2.687v5.376l-.157 64.906-20.844-12V72.406l60.563-34.844zm208 1.218c9.05 0 16.188 7.138 16.188 16.19 0 9.05-7.137 16.186-16.188 16.186-9.05 0-16.188-7.137-16.188-16.187 0-9.052 7.137-16.19 16.188-16.19zM145.812 59.97l21.625 12.436v59.25L232.188 171l13.344 7.844-.218.125 18.25 11.06 52.688-30.31 20.188 11.624-55.813 32.312-4.656 2.688v5.375l-.126 64.093-20.156-11.594v-57.095l-97.97-59.47-50.843 29.25-21.03-12.093.155-70.25 59.813-34.593zm-20.218 38.968c-11.512 0-20.656 9.113-20.656 20.624 0 11.512 9.144 20.657 20.656 20.657 11.512 0 20.625-9.146 20.625-20.657 0-11.514-9.114-20.626-20.626-20.626zm229.53 83.156l21.688 12.47v69.655L316.25 299.06l-21.75-12.53.156-69.407 60.47-35.03zm-250.093 66.03c9.052 0 16.19 7.138 16.19 16.19 0 9.05-7.138 16.186-16.19 16.186-9.05 0-16.186-7.137-16.186-16.188 0-9.05 7.137-16.187 16.187-16.187zm211.22 73.345l60.563 34.874v69.625L316.25 460.81l-60.563-34.843V356.31l60.563-34.843zm-.406 31.31c-21.558 0-38.813 17.287-38.813 38.845s17.256 38.844 38.814 38.844 38.844-17.287 38.844-38.845c0-21.56-17.286-38.844-38.844-38.844z"/></g></symbol>
  <symbol id="gi-powder" viewBox="0 0 512 512"><g fill="currentColor"><path fill="currentColor" d="M260.28 71.406c-12.493.18-23.276 7.03-35.31 16.313C160.78 137.22 81.93 205.86 59.874 254c-8.294-11.01-37.188-8.578-37.188 6.656 0 13.07 20.105 16.687 31.594 11.094-.615 4.334-.52 8.38.345 12.125-6.367 1.883-11.28 5.995-11.28 12.28 0 13.762 22.29 17.075 33.343 10.158 5.03 2.766 10.308 5.383 15.812 7.812-.82 1.512-1.25 3.237-1.25 5.156 0 11.616 15.868 15.766 27.47 12.626-.146.71-.22 1.472-.22 2.25 0 18.294 39.406 18.13 39.406 0 0-.147-.026-.293-.03-.437 14.275 2.734 29.115 4.778 44.28 6.155 3.003 14.32 32.657 14.91 38.25 2.063 15.032.29 30.163 0 45.156-.875-.136.693-.25 1.43-.25 2.187 0 14.17 23.653 17.252 34.313 9.5 11.71 17.38 56 14.1 56-9.375 0-2.304-.407-4.408-1.188-6.313 9.565 4.504 22.57 5.225 33.25 2.157 2.438 16.508 39.282 15.748 39.282-1.783 0-9.43-10.643-13.827-20.876-13.406.577-1.795.906-3.732.906-5.81 0-1.85-.26-3.57-.72-5.19 5.083-1.994 9.978-4.1 14.658-6.28 12.24-5.705 17.59-14.928 17.687-26.563 11.533 5.37 31.313 1.566 31.313-11.28 0-14.457-25.064-17.168-35.22-8.657-18.55-51.64-99.242-128.954-160.78-175.188-13.177-9.9-23.94-13.796-33.657-13.656zM479.314 302.5c-9.854.043-19.72 4.577-19.72 13.47 0 18.293 39.407 18.13 39.407 0 0-9.066-9.834-13.513-19.688-13.47zM34.97 314.063c-9.854.043-19.72 4.576-19.72 13.468 0 18.296 39.406 18.13 39.406 0 0-9.064-9.834-13.51-19.687-13.467zM80.374 342.5c-10.71.047-21.43 4.817-22.156 14.156-10.41-.53-21.5 3.978-21.5 13.406 0 17.342 35.404 18.098 39.093 2.688 12.385 1.59 26.75-3.445 26.75-15.063 0-10.204-11.096-15.236-22.188-15.187zm89.22 10.406c-6.657.03-13.32 2.1-16.94 6.188-13.492-2.84-30.874 2.275-30.874 15.094 0 19.417 37.687 21.175 45.157 5.718 10.654.872 22.344-3.65 22.344-13.53 0-9.066-9.833-13.513-19.686-13.47zm89.186 1.625c-9.852.044-19.717 4.578-19.717 13.47 0 18.294 39.437 18.13 39.437 0 0-9.065-9.866-13.512-19.72-13.47zm210.626 6.064c-12.95.056-25.906 6.03-25.906 17.72 0 24.043 51.78 23.826 51.78-.002 0-11.913-12.923-17.775-25.874-17.718zm-75.187 7.125c-9.854.042-19.72 4.575-19.72 13.467 0 18.295 39.438 18.13 39.438 0 0-9.064-9.866-13.51-19.72-13.468zm-181.283 13.75c-11.298.048-22.593 5.24-22.593 15.436 0 12.487 16.006 17.455 28.97 15.063 6.844 18.704 50.905 16.82 50.905-5.158 0-15.218-21.107-20.517-36.376-16.28-3.558-6.105-12.228-9.1-20.906-9.063zm121.844 6.936c-6.21.027-12.443 1.842-16.186 5.406-11.597-4.94-30.78-1.042-30.78 11.375-.002 14.898 26.137 17.537 35.842 8.22 11.597 5.024 30.813 1.126 30.813-11.532 0-9.065-9.836-13.512-19.69-13.47zM94.44 390.97c-11.3.048-22.626 5.24-22.626 15.436 0 20.978 45.22 20.79 45.22 0 0-10.394-11.296-15.487-22.594-15.437zM429.5 404.81c-11.092.05-22.188 5.146-22.188 15.157 0 20.594 44.375 20.41 44.375 0 0-10.206-11.095-15.206-22.187-15.158zm-270.656 1.844c-11.3.05-22.594 5.24-22.594 15.438 0 20.978 45.188 20.79 45.188 0 0-10.395-11.296-15.487-22.594-15.438z"/></g></symbol>
  <symbol id="gi-battery" viewBox="0 0 512 512"><g fill="currentColor"><path fill="currentColor" d="M230.218 16c-14.245 0-51.563 11.946-51.563 26.718v26.718h-51.093C99.072 69.436 76 93.326 76 122.874V442.56C76 472.11 99.072 496 127.563 496h256.875c28.49-.002 51.562-23.892 51.562-53.44V122.874c0-29.547-23.072-53.437-51.563-53.437h-51.093V42.718c0-14.774-37.317-26.718-51.562-26.718H230.22zM256 122.875V256h102.657L256 442.563V309.438H153.343L256 122.875z"/></g></symbol>
  <symbol id="gi-concrete" viewBox="0 0 512 512"><g fill="currentColor"><path fill="currentColor" d="M172.416 41.021c-39.47.351-78.748 5.972-114.732 14.827 10.094 15.264 27.17 26.95 46.898 34.865 23.65 9.488 50.72 13.333 70.959 12.299 20.826-1.065 47.765-9.524 68.764-21.008 10.5-5.742 19.542-12.245 25.652-18.5 3.24-3.317 5.517-6.486 6.99-9.316-30.874-8.778-63.696-12.865-96.635-13.167a438.026 438.026 0 0 0-7.896 0zm111.541 33.877c-.372.396-.743.793-1.125 1.184-7.888 8.075-18.231 15.34-29.889 21.715-23.314 12.75-51.772 21.928-76.484 23.191-23.227 1.188-52.158-2.967-78.58-13.568-18.094-7.26-35.189-17.651-47.762-31.873C33.802 206.86 19.325 353.169 39.992 473.012c19.598 6.163 40.992 10.825 63.008 13.95V423h64v-64h109.957c-.024-3.013.152-6.295.486-9.97.96-10.546 3.217-24.018 6.338-39.007 5.408-25.967 13.412-56.318 21.948-82.152-4.95-49.133-12.133-100.876-21.772-152.973zm152.682.59c-.909.002-1.93.107-2.87.137l-56.949 71.28c7.692 2.471 14.598 7.387 19.639 14.052l55.268-66.045c.901-2.06.935-7.813-2.174-12.293-2.433-3.505-5.967-6.446-12.051-7.092-.27-.028-.56-.04-.863-.039zm-69.506 87.742a31.857 31.857 0 0 0-4.278 6.745c-3.85 8.26-4.52 17.07-3.816 24.61l.022.224 3.507 24.408a201.33 201.33 0 0 0-5.46.586c-11.149 1.362-23.392 3.885-31.805 6.601-9.124 26.31-18.124 59.552-23.9 87.29-3.034 14.562-5.182 27.607-6.034 36.966-.268 2.945-.188 4.657-.203 6.729 2.338-1.204 5.048-2.731 8.326-4.871 9.674-6.317 22.502-16.22 36.13-27.565 25.535-21.259 53.706-47.399 71.997-65.816-2.982-7.624-8.213-16.243-13.951-23.516-6.682-8.469-14.49-15.144-16.53-16.408-.057.008-.262-.026-.392-.04l-3.783-26.323c-.448-4.91.237-11.044 2.207-15.27.975-2.092 2.012-3.727 3.46-4.951-3.847-5.382-9.725-8.894-15.497-9.399zM377 313v46h110v-46H377zm-192 64v46h110v-46H185zm128 0v46h110v-46H313zm128 0v46h46v-46h-46zm-320 64v46h110v-46H121zm128 0v46h110v-46H249zm128 0v46h110v-46H377z"/></g></symbol>
  <symbol id="gi-nuclear" viewBox="0 0 512 512"><g fill="currentColor"><path fill="currentColor" d="M256 31c-26.498 0-79.5 26.92-79.5 53.844S203.003 165.62 256 219.47c52.997-53.85 79.5-107.702 79.5-134.626C335.5 57.92 282.498 31 256 31zm1.53 215.406A52.997 53.847 0 0 0 203 300.25a52.997 53.847 0 0 0 106 0 52.997 53.847 0 0 0-51.47-53.844zm-166.155 80.47c-26.704.12-47.245 4.393-58.72 11.124-22.947 13.462-19.373 73.558-6.124 96.875 13.25 23.317 62.678 56.493 85.626 43.03 22.95-13.46 55.602-63.722 75-137.28-36.197-9.855-69.077-13.87-95.78-13.75zm329.25 0c-26.704-.122-59.584 3.894-95.78 13.75 19.397 73.557 52.05 123.818 75 137.28 22.947 13.462 72.375-19.714 85.624-43.03 13.248-23.318 16.822-83.414-6.126-96.876-11.474-6.73-32.015-11.004-58.72-11.125z"/></g></symbol>
  <symbol id="gi-gear" viewBox="0 0 512 512"><g fill="currentColor"><path fill="currentColor" d="M179.625 22.313L163.22 58.937c-3.258-.384-6.498-.604-9.72-.624-10.577-.066-20.857 1.808-30.47 5.28L99.78 31.032 55.75 63.188l24.063 33.657c-7.21 10.412-12.3 22.5-14.5 35.75l-42.72 4.687 5.345 54.25 45.468-5c5.082 10.2 12.078 19.372 20.594 26.97l-19.406 43.375 49.375 22.094 19.5-43.564c11.656 1.242 23.08.128 33.75-3l28.124 38.53 31.72-23.186 11.655 20.156C234.014 279.138 220.873 292.3 209.624 307l-49.22-28.344-25.718 46.72 48.125 27.937c-7.068 16.934-11.967 34.975-14.343 53.812H112.5v53.72h56.22c1.66 12.053 4.372 23.753 8.03 35.06h169.312c-23.915-10.758-40.562-34.788-40.562-62.717 0-37.964 30.754-68.75 68.72-68.75 37.963 0 68.75 30.786 68.75 68.75 0 27.93-16.67 51.96-40.595 62.718h91.5V200.375l-11.688-6.406L454.594 242c-16.842-7.204-34.808-12.234-53.594-14.72v-55.53h-53.72v55.47c-18.303 2.377-35.83 7.183-52.31 14.03l-27.126-47.28-36 20.25-9.25-12.97c7.08-9.223 12.43-19.93 15.5-31.72l44.437-4.843-5.342-54.25-42.25 4.157c-4.92-12.618-12.648-23.953-22.563-33.094L229 44.406l-49.375-22.093zm-27.344 84.25c23.3-.24 42.94 17.827 44.376 41.343 1.48 24.275-17.004 45.144-41.28 46.625-24.278 1.483-45.145-16.974-46.626-41.25-1.48-24.274 16.973-45.142 41.25-46.624.76-.046 1.53-.086 2.28-.094z"/></g></symbol>
  <symbol id="gi-wire" viewBox="0 0 512 512"><g fill="currentColor"><path fill="currentColor" d="M169.8 21.95c-43.8 0-83.33 3.58-111.42 9.2-14.05 2.81-25.26 6.19-32.21 9.5-3.48 1.64-5.84 3.29-6.88 4.31 1.04 1.02 3.4 2.67 6.88 4.31 6.95 3.29 18.16 6.67 32.21 9.48 28.09 5.62 67.62 9.2 111.42 9.2 43.7 0 83.3-3.58 111.3-9.22 14-2.81 25.2-6.19 32.2-9.48 3.5-1.64 5.8-3.29 6.9-4.31-1.1-1.02-3.4-2.67-6.9-4.31-7-3.29-18.2-6.67-32.2-9.48-28.1-5.62-67.6-9.2-111.3-9.2zM405 24.38c-3 0-6.2.1-9.2.26-19 1.13-39.4 5.84-59.3 12.14 1.3 2.4 2.3 5.15 2.3 8.16 0 4.58-2.2 8.57-4.8 11.61 21.6-7.31 43.8-12.81 62.8-13.95 21.8-1.3 38.7 2.92 48.5 14.31 15.7 18.1 15.8 36.34 7.3 59.19-8.5 22.8-26.5 48.6-46.3 75.3-19.7 26.8-41.1 54.6-55.8 82.9-14.9 28.4-23.4 58.1-14.9 87.4 9.9 34.8 48.2 63.6 82.9 85.6 34.9 22.1 67.5 36.4 67.5 36.4l7.2-16.4s-31.5-14-65.1-35.2c-33.5-21.2-68.1-50.5-75.1-75.4h-.2c-6.6-23-.2-47.7 13.7-74 13.6-26.4 34.5-53.6 54.3-80.6 19.9-26.9 38.9-53.4 48.7-79.7 9.8-26.47 9.3-54.21-10.6-77.26-13.1-15.14-32.7-20.62-54-20.77zm-235.2 8.57a64 8 0 0 1 64 8 64 8 0 0 1-64 8 64 8 0 0 1-64.1-8 64 8 0 0 1 64.1-8zM50.75 75.54v17.95c33.14.18 66.05-3.01 95.65-7.88-35.4-1.01-67.02-4.3-91.55-9.21-1.4-.28-2.75-.57-4.1-.86zm238.05 0c-1.4.29-2.7.58-4.2.86-15.5 3.1-33.8 5.55-54.1 7.19v.1C189.6 97.95 121.2 111.9 50.75 111.5v11.3c83.35 2.5 162.65-12.1 238.05-32.61zm0 33.36c-74.9 20-154.3 34.5-238.05 32v13.3c81.65 1.3 161.25-4.6 238.05-23.5zm0 40.3c-77.4 18.6-156.9 24.3-238.05 23v11.5c88.35 6.1 171.25 7 238.05-6.8zm0 46.1c-68.8 13.6-151.1 12.4-238.05 6.4v12c73.05 17.6 154.55 24.6 238.05 29.4v-15.7l-65.7-3.3 65.7-9.2zM50.75 232.2v24.1c90.05 22.1 163.05 26 238.05 26.2v-21.3c-82.5-4.8-164-11.6-238.05-29zm0 42.6v22.8l83.15 11.6-83.15 4.2v14.8c84.25 1.4 166.15-.3 238.05-17.3v-10.4c-74.4-.1-148.2-4-238.05-25.7zm238.05 54.6c-73.4 16.7-155.1 18.2-238.05 16.8v23.6c104.95 7.4 189.75-6 238.05-20.9zm0 38.2c-51.4 15.2-135 27.5-238.05 20.3v25.5c89.35 1.1 176.05-2.2 238.05-29.8zm0 35.6c-65.6 26.8-150 29.3-235.89 28.3 30.05 10.5 73.29 16 116.89 15.9 44.4-.1 88.8-6.1 119-16.8zM32.75 442.5c-2.06 1-3.92 2.1-5.53 3.1-6.84 4.5-8.47 8-8.47 9.6 0 1.6 1.63 5.1 8.47 9.6 6.84 4.4 17.86 9 31.78 12.8 27.82 7.6 67.2 12.5 110.8 12.5 43.5 0 82.9-4.9 110.8-12.5 13.9-3.8 24.9-8.4 31.7-12.8 6.8-4.5 8.5-8 8.5-9.6 0-1.6-1.7-5.1-8.5-9.6-1.7-1-3.5-2.1-5.5-3.1v.6l-5.7 2.3c-33.9 13.4-82.5 19.9-131.3 20-48.8.1-97.49-6.1-131.47-20.1l-5.58-2.3z"/></g></symbol>
  <symbol id="gi-circuit" viewBox="0 0 512 512"><g fill="currentColor"><path fill="currentColor" d="M413.72 19.395v98.64l-46.116 46.117-34.198-34.2-6.607 6.61-141.52 141.516 113.513 113.51-52.775 52.773.002 50.31h18.687v-42.568l47.3-47.3 21.4 21.4 148.122-148.124-60.165-60.164 67.447-67.45V19.395h-18.687v123.33l-61.975 61.975-27.332-27.333 51.59-51.59V19.395H413.72zM19.36 30.303V48.99h186.607l44.254 44.254c-2.56 4.393-4.032 9.496-4.032 14.947 0 16.422 13.312 29.736 29.732 29.736s29.732-13.314 29.732-29.735c0-16.42-13.312-29.73-29.732-29.73-4.143 0-8.088.85-11.672 2.382l-50.54-50.54H19.36zm0 55.478v18.69l131.126.003 44.254 44.254c-2.56 4.392-4.035 9.496-4.035 14.947 0 16.42 13.312 29.732 29.732 29.732s29.733-13.312 29.733-29.732-13.312-29.733-29.732-29.733c-4.144 0-8.088.85-11.672 2.382l-50.54-50.54H19.362zm83.386 55.482l-83.385.002v18.69l75.646-.003 44.254 44.26c-2.56 4.39-4.033 9.496-4.033 14.946 0 16.42 13.312 29.733 29.732 29.733s29.73-13.313 29.73-29.734c0-16.42-13.31-29.734-29.73-29.734-4.145 0-8.09.85-11.675 2.383l-50.54-50.543zm230.66 15.12L455.1 278.08 333.406 399.77 211.71 278.08l121.696-121.695zm-1.254 27.388l-94.574 94.574 95.012 95.015 13.215-13.214-81.797-81.8 81.36-81.362-13.216-13.214zm-312.79 21.558v51.207l160.13 160.13v78.005h18.69V384.146L19.362 205.328zm346.51 8.397L352.66 226.94l51.48 51.482-51.77 51.77 13.218 13.214 64.982-64.984-64.695-64.697zm-29.93 33.16c-17.45 0-31.592 14.147-31.592 31.594 0 17.445 14.143 31.59 31.59 31.59 17.45 0 31.593-14.145 31.593-31.59 0-17.45-14.143-31.595-31.592-31.595zM19.36 295.35v51.207l94.886 94.88v53.233h18.688v-85.75L19.362 295.35zm427.378 73.154c-16.42 0-29.732 13.312-29.732 29.732s13.312 29.735 29.732 29.735c3.994 0 7.802-.794 11.28-2.222l36.62 36.615v-26.427l-22.402-22.4c2.688-4.47 4.237-9.704 4.237-15.3 0-16.42-13.314-29.732-29.735-29.732zM19.36 386.19V437.4l31.294 31.29-.002 25.982H69.34l.006-58.496L19.36 386.19zm371.902 37.796c-16.42 0-29.733 13.312-29.733 29.733 0 16.42 13.31 29.73 29.732 29.73 3.513 0 6.882-.612 10.01-1.73l12.955 12.95h26.43l-24.58-24.578c3.104-4.697 4.917-10.322 4.917-16.373 0-16.422-13.312-29.734-29.732-29.734z"/></g></symbol>
  <symbol id="gi-processor" viewBox="0 0 512 512"><g fill="currentColor"><path fill="currentColor" d="M228.844 32.22v114.218h17.687V32.218h-17.686zm-108.25.624c-15.507 0-28.094 12.586-28.094 28.093C92.5 76.444 105.087 89 120.594 89c12.655 0 23.34-8.372 26.844-19.875h44.937v77.313h17.688v-95H147.03c-3.888-10.837-14.262-18.593-26.436-18.593zm193.25 0c-15.507 0-28.063 12.586-28.063 28.093 0 12.124 7.677 22.45 18.44 26.376v59.124h17.655V87.844c11.596-3.452 20.063-14.193 20.063-26.906 0-15.508-12.587-28.094-28.094-28.094zM266.124 92.5v53.938h17.657V92.5h-17.655zm188.532 4.03c-15.507 0-28.094 12.588-28.094 28.095 0 13.083 8.948 24.074 21.063 27.188v27.468h-92.938v17.657h110.624v-46.342c10.223-4.192 17.407-14.233 17.407-25.97 0-15.507-12.557-28.094-28.064-28.094zM30.187 123.657v17.688H96.75v55.594h62.814V179.28h-45.126v-55.624h-84.25zm147.032 40.47v159.718h159.81v-159.72H177.22zm17.56 15.655h17.657v78.595l32.407 32.406h75.28v17.658H237.5l-2.594-2.594-10.75-10.75c-1.033 7.385-7.36 13.062-15.03 13.062-8.392 0-15.19-6.796-15.19-15.187 0-7.682 5.696-13.98 13.095-15l-9.655-9.658-2.594-2.593V179.78zm54.94.157h17.686v55.313h52.53l.002 17.688H249.72v-73zM53.124 217.375V307.344c-11.49 3.512-19.844 14.198-19.844 26.844 0 15.505 12.557 28.093 28.064 28.093s28.093-12.587 28.093-28.092c0-12.195-7.79-22.564-18.656-26.438v-72.72h88.782v-17.655H53.124zm301.563 0v17.656h53.968v-17.655h-53.97zm99.968 21.97c-10.898 0-20.342 6.21-25 15.28h-74.97l.002 17.688H427c2.325 13.168 13.824 23.187 27.656 23.187 15.507 0 28.063-12.588 28.063-28.094 0-15.507-12.557-28.062-28.064-28.062zm-349.062 15.28v17.688h53.97v-17.688h-53.97zm17.156 36.47v84.217c-11.498 3.513-19.875 14.2-19.875 26.844 0 15.506 12.587 28.094 28.094 28.094 15.506 0 28.06-12.588 28.06-28.094 0-12.194-7.766-22.564-18.624-26.437v-66.94h19.156v-17.686H122.75zm231.938 0v17.686h45.156v95.283c-11.323 3.624-19.53 14.26-19.53 26.78-.002 15.506 12.585 28.063 28.092 28.063 15.507 0 28.063-12.557 28.063-28.062 0-12.32-7.935-22.778-18.97-26.563V291.095h-62.814zM192.375 341.53v54.033h17.688V341.53h-17.688zm36.47 0v86.564c-11.013 3.794-18.94 14.233-18.94 26.53 0 15.506 12.588 28.095 28.095 28.095s28.063-12.59 28.063-28.095c0-12.53-8.203-23.14-19.532-26.75V341.53h-17.686zm37.28 0v54.033h17.688l-.032-54.032h-17.655zm38.094 0v140.064h17.655V341.53H304.22z"/></g></symbol>
  <symbol id="gi-pipe" viewBox="0 0 512 512"><g fill="currentColor"><path fill="currentColor" d="M121 18v143.537c0 3.913 2.64 9.707 7.28 14.166 4.638 4.46 10.825 7.297 16.05 7.297H279v-46H167V18zm112 0v23h-48v46h71c5 0 11.05-2.777 15.637-7.363C276.223 75.05 279 69 279 64V18zm96 0v37h46V18zM80 41c-5 0-11.05 2.777-15.637 7.363C59.777 52.95 57 59 57 64v183h46V41zm249 32v46h46V73zm-32 64v46h197v-46zm32 64v46h46v-46zM18 265v46h135v82h-32v46h54.934c5.045 0 11.15-2.802 15.754-7.32 4.604-4.518 7.312-10.428 7.312-14.846V311h102.174A88.47 88.47 0 0 1 343 295.47v18.114c-19.383 2.436-36.29 12.62-47.53 27.385l-22.11-12.765-9 15.59 22.11 12.764C282.95 364.994 281 374.26 281 384s1.95 19.005 5.47 27.44l-22.11 12.765 9 15.59 22.11-12.764c11.24 14.767 28.147 24.95 47.53 27.386v18.127a88.535 88.535 0 0 1-14-2.566V494h46v-24.023a88.535 88.535 0 0 1-14 2.566v-18.127c19.383-2.436 36.29-12.62 47.53-27.385l22.11 12.765 9-15.59-22.11-12.764c3.52-8.435 5.47-17.702 5.47-27.44s-1.95-19.005-5.47-27.44l22.11-12.765-9-15.59-22.11 12.764c-11.24-14.767-28.147-24.95-47.53-27.386V295.47A88.47 88.47 0 0 1 402.826 311H494v-46zm325 62.723v40.687l-35.19-20.316c8.668-10.64 21.08-18.113 35.19-20.37zm18 0c14.11 2.258 26.522 9.732 35.19 20.37L361 368.41zM57 329v165h46V329zm380.977 32A88.703 88.703 0 0 1 441 384c0 7.95-1.055 15.66-3.023 23H494v-46zm-139.198 2.666L333.997 384l-35.22 20.334A56.53 56.53 0 0 1 295 384a56.53 56.53 0 0 1 3.78-20.334zm106.44 0A56.53 56.53 0 0 1 409 384a56.53 56.53 0 0 1-3.78 20.334L370.003 384zM18 393v46h21v-46zm325 6.59v40.687c-14.11-2.258-26.522-9.732-35.19-20.37zm18 0l35.19 20.316c-8.668 10.64-21.08 18.113-35.19 20.37z"/></g></symbol>
  <symbol id="gi-engine" viewBox="0 0 512 512"><g fill="currentColor"><path fill="currentColor" d="M253.8 50.95c-87.2-.13-136.5 16.95-228.4 51.45v109.5c42.94-12.7 75-12.8 119-12.8 60 0 60 114 0 114-44 0-76.06-.1-119-12.8v109.5c111.6 41.8 160.5 57.8 290.8 48.9-19.7-11.3-37.3-28.9-51.5-50.6-25.8-39.4-41.3-93-41.3-152s15.5-112.6 41.3-152c14.2-21.79 31.7-39.31 51.5-50.66-23.1-1.62-43.7-2.49-62.4-2.49zm114.6 6.09c-33.8 0-65.2 20.96-88.6 56.86-23.5 35.9-38.4 86.4-38.4 142.2 0 55.8 14.9 106.3 38.4 142.2 23.4 35.8 54.8 56.8 88.6 56.8s65.2-21 88.6-56.8c12.7-19.5 23-43.3 29.6-69.8-5.3 16.9-12.4 32.3-21.1 45.6-20 30.7-48.6 51-81.1 51-32.5 0-61.1-20.3-81.1-51-19.9-30.7-31.9-72.2-31.9-118s12-87.3 31.9-118c20-30.7 48.6-51.06 81.1-51.06 32.5 0 61.1 20.36 81.1 51.06 8.7 13.3 15.8 28.7 21.1 45.6-6.6-26.5-16.9-50.3-29.6-69.8-23.4-35.9-54.8-56.86-88.6-56.86zm16 48.06c-8.7 0-17.2 1.9-25.3 5.5-4.5 35.7 4.1 63.4 14.8 91.1 3.1-1.6 6.7-2.6 10.5-2.6.9 0 1.8 0 2.7.1 5.4-28.4 12.4-57.4 31.4-83.9-10.7-6.7-22.2-10.2-34.1-10.2zM340 122.8c-7.8 6.6-15.1 15.1-21.6 25.1-5.5 8.4-10.3 17.9-14.4 28.2 7.7 16.4 18.4 27.5 30.6 37 5.6 4.4 11.7 8.4 17.9 12.3.7-1.3 1.4-2.6 2.2-3.9 1.4-2.4 3-4.8 4.7-7-10.7-27.2-20.8-56-19.4-91.7zm92.8 3.6c-16.7 23.7-22.8 50.5-28.2 78.6.2.1.3.1.5.2 3.1 1.5 6.2 3.2 9.4 5.1 13.7-15 28.9-29.2 48.8-37.8-3.7-8.9-8.1-17.2-12.9-24.6-5.4-8.3-11.3-15.5-17.6-21.5zm36.7 63.1c-15 6.9-27.3 18.3-39.4 31.1 6.5 4.8 12.4 10 17.2 15.2.9 1 1.7 2 2.6 3 1.4-.1 2.9-.2 4.3-.2 8.1-.1 16.3.5 24.7 2.3-1.2-18.4-4.5-35.7-9.4-51.4zm-173 9.5c-4.2 16.1-6.7 33.7-7 52 13.6 7.4 26.7 7.5 41.5 5.2 4.1-.6 8.2-1.5 12.5-2.4.2-3.7.9-7.6 2-11.4-7.4-4.6-14.8-9.4-21.9-15-9.9-7.7-19.2-16.8-27.1-28.4zm-152.1 18.1c-45.81 0-75.65.1-119 13.7v50.6c43.35 13.6 73.19 13.7 119 13.7 36 0 36-78 0-78zm240 0c-1 0-3.1.7-5.9 3.1-2.7 2.3-5.7 6.1-8.4 10.5-5.3 8.8-8.7 20.4-8.7 25.4s3.4 16.6 8.7 25.4c2.7 4.4 5.7 8.2 8.4 10.5 2.8 2.4 4.9 3.1 5.9 3.1s6.7-1.4 12.8-4.4c6.2-2.9 13.4-7.2 20-11.9s12.7-9.9 16.8-14.5c3.7-4 5.1-7.8 5.4-8.2-.3-.4-1.7-4.2-5.4-8.2-4.1-4.6-10.2-9.8-16.8-14.5-6.6-4.7-13.8-9-20-11.9-6.1-3-11.8-4.4-12.8-4.4zm55 39s0 .1 0 0zm18 .8c-.3 8.1-4.9 13.7-10.1 19.5-1.9 2.1-4 4.1-6.2 6.2 11.4 7.9 22.5 16.6 32 27.4 3.8-15.7 6-32.7 6.3-50.5-7.3-1.9-14.7-2.6-22-2.6zm-167.5 14c1.4 23.4 6.3 45.3 13.7 64.3 19.9-11.9 34.1-30.1 48.2-49.7-2.4-4.5-4.3-9.2-5.8-13.8-4 .8-8.1 1.6-12.2 2.3-13.9 2.1-29 2.4-43.9-3.1zm135.9 23.7c-3.6 2.6-7.4 5-11.1 7.2 11 24 21.3 48.9 25.1 76.6 3.7-4.3 7.3-9 10.6-14.1 6.3-9.8 11.9-21 16.3-33.3-10.4-14.7-24.9-25.8-40.9-36.4zm-63.1 7c-13.9 19.1-29.5 37.6-51.6 50.1 2.3 4.4 4.7 8.6 7.3 12.6 9.7 14.9 21 26.3 33.4 33.6 14.3-30.2 16.6-59.5 18.5-89.5-1.2-.8-2.4-1.7-3.5-2.7-1.4-1.3-2.8-2.6-4.1-4.1zm35.6 8.4c-3.4 1.4-6.6 2.4-10 2.8-1.8 29.6-4.8 60.1-19.8 92.2 5.2 1.4 10.5 2.1 15.9 2.1 13.7 0 26.8-4.7 38.8-13.3-1.5-29.6-12.5-56.5-24.9-83.8z"/></g></symbol>
  <symbol id="gi-robot-frame" viewBox="0 0 512 512"><g fill="currentColor"><path fill="currentColor" d="M301.4 51.96c-46.6.1-85.3 18.16-105.2 50.84-13.2 21.8-16.8 49.4-9.2 78 2 7.6 4.8 15.3 8.4 23.1 1.1-1.3 2.3-2.6 3.6-3.9 7.8-7.8 16.8-13.6 26.4-17.5-1.5-3.8-2.7-7.4-3.6-10.9-5.5-20.7-2.7-37 5.2-50.1 15.9-26.16 57.6-42.41 114.7-28.49l8.6-34.98c-16.9-4.11-33.3-6.09-48.9-6.07zM454 161.7l-35 8.6c13.9 57.1-2.3 98.8-28.5 114.7-13.1 7.9-29.4 10.7-50.1 5.2-3.5-.9-7.1-2.1-10.7-3.5-3.9 9.6-9.8 18.6-17.6 26.4-1.3 1.3-2.5 2.5-3.9 3.6 7.8 3.5 15.4 6.3 23 8.3 28.6 7.6 56.2 4 78-9.2 43.6-26.5 61.3-86.6 44.8-154.1zm-198.4 32.8c-15.9 0-31.8 6-43.9 18.2-24.3 24.3-24.2 63.4 0 87.7 24.3 24.2 63.4 24.2 87.7 0 24.3-24.3 24.2-63.4 0-87.7-12.1-12.2-28-18.2-43.8-18.2zm0 21.1c10.5 0 21 4 28.9 11.9 16 15.9 16 42.1.1 58-16 16-42.1 15.9-58 0-15.9-15.9-16-42 0-58 7.9-8 18.5-11.9 29-11.9zm0 17.9c-5.9 0-11.7 2.3-16.3 6.8-9.1 9-9.1 23.4 0 32.5 9 9 23.5 9 32.5 0 9.1-9.1 9.1-23.5 0-32.5-4.5-4.5-10.3-6.8-16.2-6.8zm-80 25.1l-54.5 54.5 43.7 43.7 34.2 34.1 54.4-54.5c-19.8-.5-39.4-8.3-54.4-23.3-15.1-15.1-22.9-34.7-23.4-54.5zM63.41 313.2l8.11 40.6 86.68 86.7 40.6 8.1-8.1-40.6-86.7-86.6zM18.1 358.5l8.13 40.7 86.57 86.6 40.7 8.1-8.1-40.6-86.59-86.7zm-.1 57.9v64.8l32.45-32.4zm45.2 45.2L30.8 494h64.78z"/></g></symbol>
  <symbol id="gi-cube" viewBox="0 0 512 512"><g fill="currentColor"><path fill="currentColor" d="M256 24.585L51.47 118.989 256 213.394l204.53-94.405zM38.998 133.054v258.353L247 487.415V229.063zm434.004 0L265 229.062v258.353l208.002-96.008z"/></g></symbol>
  <symbol id="gi-rocket-thruster" viewBox="0 0 512 512"><g fill="currentColor"><path fill="currentColor" d="M36.078 16L16 35.55v50.247L87.684 16H36.078zm121.83 0l-97.834 95.26c8.838-.48 17.72-.946 27.207-1.367L183.71 16H157.91zm107.768 0L217.72 62.693c11.73-7.19 24.684-14.537 37.987-21.455 17.973-9.346 36.334-17.656 52.807-23.023 2.466-.804 4.865-1.53 7.234-2.215h-50.072zm105.627 0l-4.29 3.432c56.944 23.005 97.62 63.682 120.628 120.627l8.16-10.2C475.674 75.84 440.51 38.356 388.93 16h-17.63zm55.894 0C455.86 34.214 478.884 58.318 496 88.027V63.582C484.442 45.14 469.57 29.234 451.488 16h-24.29zm52.176 0A192.31 192.31 0 0 1 496 33.447V16h-16.627zM341.316 30.266c-6.124-.108-15.98 1.4-27.226 5.064-14.994 4.886-32.696 12.84-50.078 21.88a519.558 519.558 0 0 0-18.948 10.384c27.085 5.188 54.39 17.866 79.737 35.3l69.516-49.654c-14.42-8.99-30.465-16.435-48.207-22.35-1.126-.374-2.752-.588-4.794-.624zm68.713 33.87l-69.99 49.995a317.653 317.653 0 0 1 28.007 24.895 317.684 317.684 0 0 1 24.902 28.002l49.988-69.986a181.614 181.614 0 0 0-32.91-32.905zm-193.41 18.08c-19.394.162-36.698 5.932-49.39 18.626a58.492 58.492 0 0 0-6.992 8.447c7.737.345 15.336.865 22.698 1.606 8.6-7.025 20.286-10.66 34.26-10.71 9.396-.034 19.82 1.55 31.025 4.802 29.88 8.675 64.076 29.196 94.372 59.492 30.296 30.297 50.82 64.496 59.494 94.374 8.674 29.877 5.474 54.205-8.582 68.26a40.523 40.523 0 0 1-7.076 5.63 234.492 234.492 0 0 1-5.32 22.106c9.518-3 18.04-7.923 25.124-15.006 20.31-20.31 22.893-52.42 13.14-86.01-9.36-32.248-30.12-66.993-60.245-98.2l-.09-.093-.057-.056a307.882 307.882 0 0 0-3.66-3.73h-.002a308.138 308.138 0 0 0-3.726-3.66l-.06-.06c-.034-.03-.067-.06-.1-.093-31.205-30.12-65.946-50.88-98.192-60.24-12.596-3.658-24.985-5.58-36.62-5.483zM453.83 112.76l-49.652 69.515c17.437 25.354 30.1 52.67 35.285 79.762a519.383 519.383 0 0 0 10.4-18.974c9.04-17.382 16.992-35.084 21.877-50.078 4.886-14.993 5.94-27.516 4.44-32.017-5.914-17.742-13.36-33.785-22.35-48.207zm-315.766 14.306c-24.424-.103-49.52 1.074-72.78 2.217 7.69 2.09 14.93 3.963 22.872 6.343 29.69 8.9 59.69 19.512 74.75 40.217l12.465 17.137-20.988-2.93c-45.902-6.41-74.37 5.044-101.47 15.693 33.77 7.288 58.506 15.248 87.683 36.73l13.96 10.278-16.44 5.504C78.56 278.195 47.45 315.047 16 357.834v22.143c9.58-5.07 19.283-10.596 29.057-15.934 27.153-14.832 55.85-28.346 85.502-19.572l7.84 2.32-1.56 8.028c-6.803 35.01-28.027 91.445-48.008 141.182h15.455c44.07-50.768 93.33-113.807 108.994-146.596l7.16-14.984 8.644 14.178c5.784 9.484 3.667 19.766.973 31.724-2.694 11.958-7.28 25.69-12.178 39.88-6.224 18.024-12.536 36.71-16.552 52.19 12.538-12.48 25.598-29.23 36.842-46.912 16.8-26.42 29.886-55.1 33.586-72.515l5.015-23.613 11.668 21.134c12.356 22.385 10.967 52.3 6.996 84.723-2.37 19.346-5.82 39.638-8.854 59.653 14.87-22.31 32.57-48.36 48.307-77.36 24.843-45.79 43.262-96.883 34.79-143.876-2.723-15.107-13.146-34.003-28.327-52.83-21.165 6.466-42.44 20.892-62.875 40.822 17.09-29.95 23.5-49.964 37.183-65.225-24.578 10.682-57.176 29.572-91.263 62.765 19.654-25.258 40.095-64.07 53.935-91.478-20.372 15.64-51.45 31.377-71.21 43.81 9.8-15.11 30.47-43.68 36.517-66.957-10.983-4.976-21.758-8.688-31.87-10.765l-.148-.032-.15-.035c-20.223-4.873-46.176-6.523-73.404-6.64zM31.73 138.86L16 154.177V179.3l35.928-34.984c-7.012-1.842-13.946-3.663-20.2-5.455zm82.047 25.04l-8.13 7.916a179.563 179.563 0 0 1 21.603-1.504c-4.143-2.217-8.685-4.355-13.473-6.412zM52.14 223.916L16 259.106v50.244l75.926-73.928C79.87 230.577 67.19 227.2 52.14 223.916zM496 287.72L346.97 432.83c-13.02 23.235-27.113 44.683-39.44 63.172h26.163L496 337.965V287.72zm-384.45 72.075c-3.92 0-7.91.426-11.972 1.203L16 442.378V467.5l97.834-95.258c1.202-4.276 2.285-8.36 3.193-12.162a51.858 51.858 0 0 0-5.476-.285zM496 368.81L365.373 496h25.8L496 393.934V368.81zm-295.277 45.924l-27.32 26.602c-14.17 18.31-29.498 36.993-44.624 54.664h14.282l44.74-43.56c3.907-12.385 8.606-25.225 12.92-37.706z"/></g></symbol>
  <symbol id="gi-radar" viewBox="0 0 512 512"><g fill="currentColor"><path fill="currentColor" d="M256 23C127.4 23 23 127.4 23 256s104.4 233 233 233 233-104.4 233-233S384.6 23 256 23zm-9 18.2v78.1c-31.1 2-59.2 14.4-81.3 33.7l-55.2-55.29C146.7 64.39 194.4 43.36 247 41.2zm18 0c52.6 2.16 100.3 23.19 136.5 56.51L346.2 153c-22-19.3-50.2-31.7-81.2-33.7V41.2zM97.71 110.5L153 165.7c-19.3 22.1-31.7 50.2-33.7 81.3H41.2c2.16-52.6 23.19-100.3 56.51-136.5zm316.59 0c33.3 36.2 54.3 83.9 56.5 136.5h-78.1c-2-31-14.4-59.2-33.7-81.2l55.3-55.3zM247 137.3v38.6l.4.6 17.6-10v-29.2c26.1 2 49.8 12.3 68.5 28.4L322 177.2l11.2 14.4 13.1-13.1c16.1 18.7 26.4 42.4 28.4 68.5h-41.6l23.8 18h17.8c-.3 4.1-.9 8.2-1.6 12.2l15.8 12c2-7.8 3.3-15.9 3.8-24.2h78.1c-2.2 52.6-23.2 100.3-56.5 136.5l-33.7-33.7-11.4 14.2 32.3 32.3c-36.2 33.3-83.9 54.3-136.5 56.5v-78.1c10.3-.7 20.3-2.5 29.8-5.3l-8.6-16.3c-6.8 1.8-13.9 3-21.2 3.6v-43.5l-.6-1.1-17.4-2.2v46.8c-17.1-1.3-33.2-6.2-47.5-14l-12.2 13.8c17.7 10.3 38 16.8 59.7 18.2v78.1c-52.6-2.2-100.3-23.2-136.5-56.5l52.1-52.1-11.3-14.3-53.59 53.6C64.39 365.3 43.36 317.6 41.2 265h74.2l36.8-18h-14.9c2-26.1 12.3-49.8 28.4-68.5l10.8 10.8 13.1-12.5-11.1-11.1c18.7-16.1 42.4-26.4 68.5-28.4zm47 33.4l-45.1 25.6-7.3 4.2-19.4-29.7-32.6 31 12.8 40.7-80.7 39.5 58.5 73.3 43.2-48.5 52.6 6.5 49.7 93.7 71.9-88.6-94.4-71.4 29.4-27.2-38.6-49.1z"/></g></symbol>
  <symbol id="gi-rocket" viewBox="0 0 512 512"><g fill="currentColor"><path fill="currentColor" d="M18.78 25.97c2.6 25.278 9.316 48.72 19.532 69.75l-21.218-6.564L73.53 146.72l-.843-1.782c16.737 17.29 36.797 31.38 59.438 41.593-13.546-18.845-21.597-41.677-22.03-69.28 27.78.35 50.396 8.56 69.25 22.063-.627-1.4-1.284-2.776-1.94-4.157l.72.625-34.438-86.655-2.53 33.844c-30.974-31.598-73.044-52.084-122.376-57zm236.814 31.593L217.22 160.875c-30.663 7.52-54.566 32.236-60.907 63.344l-.188-.22-106.563 39.563 74.313 74.312 93-8.03.375-.033 23.03-2.468-77.31-94.938 13.28-13.28 89.406 109.75 10.875 13.374-17.124 1.844-28.22 3.03c14.52 17.126 30.304 33.143 47.22 47.907 7.62-56.784 52.175-102.042 108.625-110.717-14.72-16.738-30.68-32.346-47.75-46.688l-2.78 26.125-1.844 17.125L321.28 270l-107.874-88.03 13.25-13.25 93.094 75.905 2.22-20.844 7.905-91.936-74.28-74.28zM401.53 301.625c-8.783.408-17.306 1.827-25.436 4.156l13.875 16.908c7.51-2.534 15.37-4.323 23.467-5.282-3.863-5.344-7.814-10.62-11.906-15.78zm-43.78 11.25c-7.323 3.61-14.204 7.994-20.5 13.063l15.75 17.28c5.92-4.876 12.318-9.16 19.125-12.812l-14.375-17.53zm68 22.438c-7.92.117-15.616 1.157-22.97 3.03l14.5 17.688c6.108-1.82 12.447-3.043 18.97-3.686-3.387-5.76-6.865-11.445-10.5-17.03zm-102.03 3.53c-6.713 7.584-12.4 16.116-16.845 25.344l17.313 14.125c4.28-7.958 9.44-15.37 15.375-22.093l-15.844-17.376zm60.467 6.282c-6.67 3.247-12.908 7.267-18.625 11.875l16.282 17.875c5.34-4.382 11.15-8.233 17.312-11.47l-14.97-18.28zm-32 24.938c-5.204 6.153-9.673 12.96-13.25 20.28l17.97 14.688c3.305-6.06 7.202-11.76 11.624-17l-16.342-17.967zm94.094.218v.22c-45.915 0-82.96 36.985-83.06 82.875 39.248 20.8 81.966 35.93 127.06 44.313-8.284-45.328-23.3-88.145-44-127.407zM299.94 382.626c-2.38 8.6-3.743 17.625-3.97 26.938 4.937 3.885 9.96 7.664 15.063 11.343.93-8.58 2.75-16.88 5.44-24.812l-16.533-13.47zm32.156 26.25c-2 7.785-3.073 15.96-3.094 24.375 5.28 3.43 10.632 6.727 16.063 9.938.72-6.992 2.156-13.776 4.218-20.282l-17.186-14.03z"/></g></symbol>
  <symbol id="gi-satellite" viewBox="0 0 512 512"><g fill="currentColor"><path fill="currentColor" d="M314.125 45.125l-36.28 10.97 26.717 38.874L340.844 84l-26.72-38.875zM260.47 61.313l-43 13 26.686 38.874 41.625-12.562-26.467-38.5 1.156-.813zm91.467 38.874l-36.28 10.938 27.374 39.813L379.314 140l-27.375-39.813zM120.47 107.78l-36.282 10.94 26.718 38.905 36.28-10.97-26.717-38.874zm176.405 9.032l-41.594 12.563 12.814 18.656c13.59 1.764 26.138 6.878 36.844 14.44l19.312-5.845-27.375-39.813zm-230.03 7.157l-43 12.968 26.718 38.906 41.562-12.563-26.47-38.5 1.19-.81zm323.56 32.155l-36.28 10.97 25.97 37.81 36.28-10.936-25.97-37.845zm-232.092 6.72L122 173.78l27.375 39.814 36.28-10.938-27.343-39.812zm99.125 3.186c-22.736 0-42.626 11.753-53.97 29.532l66.782 97.188c6.682-1.346 12.98-3.725 18.72-6.97l7.874 11.69 15.78-10.033-8.874-13.187c10.95-11.475 17.656-27.028 17.656-44.22 0-35.446-28.52-64-63.97-64zm77.906 6.75l-14.438 4.345c9.396 11.262 15.84 25.07 18.188 40.188l22.22-6.72-25.97-37.812zm-232.125 6.69L61.655 192l27.313 39.813 41.593-12.563-27.344-39.78zm324.28 30.655l-36.28 10.97 27.342 39.81 36.313-10.967-27.375-39.813zm-230.72 8.688l-36.31 10.968 25.968 37.782 36.312-10.968-25.97-37.78zm175.657 7.937l-32.625 9.875c-.35 4.407-1.012 8.72-2.03 12.906l20.312 29.595 41.687-12.563-27.342-39.812zm-230.75 8.688L100.094 248l25.97 37.813 41.592-12.594-25.97-37.783zm324.282 30.656l-36.314 10.97 26 37.81 36.313-10.937-26-37.843zm-232.095 6.687l-36.313 10.97 27.344 39.78 36.313-10.967-27.345-39.782zm177.03 9.94L369.22 295.31l25.967 37.813 41.688-12.563-25.97-37.843zm-232.124 6.686l-41.624 12.563 27.313 39.81 41.655-12.592-27.344-39.782zm152.314 8.47L301.78 316.5l37.314 58.656 29.312-18.625-37.312-58.655zm-58.75 30.874l-36.313 10.97 26 37.81 36.314-10.936-26-37.844zm-55.094 16.625l-41.656 12.594 25.97 37.81 41.655-12.56-25.97-37.845zm178.313 20.875c-36.29.507-64.44 29.054-70.375 64.844L368.5 404l9.72 14.406c-1.222 2.47-1.908 5.245-1.908 8.188 0 10.222 8.278 18.53 18.5 18.53 10.223 0 18.5-8.308 18.5-18.53 0-10.223-8.277-18.5-18.5-18.5-.335 0-.67.045-1 .062l-9.437-14.062 37.438-23.438c-9.068-3.125-17.876-4.523-26.25-4.406z"/></g></symbol>
  <symbol id="gi-belt" viewBox="0 0 512 512"><g fill="currentColor"><path fill="currentColor" d="M256 126.97c-86.364 0-225.564 39.103-234.6 109.96-9.828 90.817 77.986 124.365 144.875 128.814v-78.592c-52.133 0-70.272-22.63-66.675-50.222 7.275-55.81 100.12-63.614 156.4-63.614s149.125 7.805 156.4 63.614c3.597 27.59-14.542 50.222-66.675 50.222v78.592c66.89-4.45 154.703-37.997 144.875-128.814-5.604-78.746-148.236-109.96-234.6-109.96zm71.656 152.257l-143.312.02V384.87l143.312.157V279.226zm-17.642 21.507v23.606h-82.29v19.592h82.29v21.523h-104.12V300.8h32.33l71.79-.066z"/></g></symbol>
  <symbol id="gi-splitter" viewBox="0 0 512 512"><g fill="currentColor"><path fill="currentColor" d="M135.3 38.88L25.22 73.93l74.73 87.97 12.75-44.5c44.9 15 73.8 35.5 91.6 58.3 20.6 26.2 27.5 56.2 25.7 88.9-3.6 65.4-45.7 139.7-83.8 185.5l27.6 23c31.7-37.9 65.6-91.6 82.2-149.5 16.6 57.9 50.5 111.6 82.2 149.5l27.6-23C327.7 404.3 285.6 330 282 264.6c-1.8-32.7 5.1-62.7 25.7-88.9 17.8-22.8 46.7-43.3 91.5-58.3l12.8 44.5 74.8-87.97-110.1-35.05 12.6 43.94c-50.8 16.8-86.7 40.98-110 70.68-10.3 13.2-17.9 27.2-23.3 41.9-5.4-14.7-13-28.7-23.3-41.9-23.3-29.7-59.2-53.88-110-70.68z"/></g></symbol>
  <symbol id="gi-inserter" viewBox="0 0 512 512"><g fill="currentColor"><path fill="currentColor" d="M117.725 24.998l30.002 30.004h4.779c10.261-9.89 24.188-16 39.494-16 15.306 0 29.233 6.11 39.494 16h4.78l30.001-30.004h-148.55zm74.275 32A38.867 38.867 0 0 0 152.998 96 38.867 38.867 0 0 0 192 135.002 38.867 38.867 0 0 0 231.002 96 38.867 38.867 0 0 0 192 56.998zm56.955 37.297c.017.568.043 1.133.043 1.705 0 22.324-12.981 41.729-31.77 51.07l77.8 29.946c-.011-.338-.026-.676-.026-1.016 0-13.624 8.415-25.416 20.293-30.428l-66.34-51.277zM328 160.998c-8.391 0-15.002 6.61-15.002 15.002 0 8.391 6.61 15.002 15.002 15.002 8.391 0 15.002-6.61 15.002-15.002 0-8.391-6.61-15.002-15.002-15.002zm-15.871 43.887l-2.945 25.799 19.57 4.084 6.21-26.524a32.649 32.649 0 0 1-22.836-3.36zm-19.998 16.484c-9.663 3.586-17.838 9.415-24.137 15.309-11.977 11.206-18.521 23.416-18.521 23.416l15.834 8.556s5.364-9.83 14.984-18.83c2.877-2.691 6.024-5.225 9.436-7.388l2.404-21.063zm55.703 10.858l-5.025 21.459c2.06 2.912 3.878 6.001 5.468 9.134 6.149 12.113 8.244 23.496 8.244 23.496l17.713-3.195s-2.437-13.73-9.908-28.447c-3.838-7.561-9.205-15.727-16.492-22.447zm-178.836 64.771v30.004h30.004v-30.004h-30.004zm128 0v30.004h30.004v-30.004h-30.004zm122.322 0v30.004h30.002v-30.004H419.32zm-275.32 48c-20 0-27.002 11.502-27.002 23.002 0 11.5 7.002 23.002 27.002 23.002h6.275c-8.936-3.83-15.273-12.742-15.273-23.002 0-10.26 6.337-19.173 15.273-23.002H144zm25.725 0c8.936 3.83 15.273 12.742 15.273 23.002 0 10.26-6.337 19.173-15.273 23.002h156.55c-8.936-3.83-15.273-12.742-15.273-23.002 0-10.26 6.337-19.173 15.273-23.002h-156.55zm176 0c8.936 3.83 15.273 12.742 15.273 23.002 0 10.26-6.337 19.173-15.273 23.002h149.277v-46.004H345.725zM63.482 360.227l-16.236 25.228 25.229 16.236 16.236-25.226-25.229-16.238zm96.518.771c-3.973 0-7.002 3.029-7.002 7.002s3.029 7.002 7.002 7.002 7.002-3.029 7.002-7.002-3.029-7.002-7.002-7.002zm176 0c-3.973 0-7.002 3.029-7.002 7.002s3.029 7.002 7.002 7.002 7.002-3.029 7.002-7.002-3.029-7.002-7.002-7.002zm-136.998 48V496h17.996v-87.002h-17.996zm240 0V496h17.996v-87.002h-17.996z"/></g></symbol>
  <symbol id="gi-rail" viewBox="0 0 512 512"><g fill="currentColor"><path fill="currentColor" d="M18 112v39h38v-39zm102 0v39h48v-39zm112 0v39h48v-39zm112 0v39h48v-39zm112 0v39h38v-39zM18 169v30h476v-30zm0 48v78h38v-78zm102 0v78h48v-78zm112 0v78h48v-78zm112 0v78h48v-78zm112 0v78h38v-78zM18 313v30h476v-30zm0 48v39h38v-39zm102 0v39h48v-39zm112 0v39h48v-39zm112 0v39h48v-39zm112 0v39h38v-39z"/></g></symbol>
  <symbol id="gi-wagon" viewBox="0 0 512 512"><g fill="currentColor"><path fill="currentColor" d="M304 64c-23.723 1.039-64 32-96 48-32-10.667-79.124-37.34-96-32-22.196 7.024-47.374 44.154-71.533 71h435.719C467.4 130.604 444.747 80.887 432 80c-15.998-1.113-80 48-80 48-16-21.333-36.57-64.5-48-64zM27.133 169l44.144 206H119V169H27.133zM137 169v14h46v-14h-46zm64 0v206h239.725l44.142-206H201zm-64 32v14h46v-14h-46zm0 32v14h46v-14h-46zm0 32v14h46v-14h-46zm0 32v14h46v-14h-46zm0 32v14h46v-14h-46zm0 32v14h46v-14h-46zM25 393v30h462v-30H25zm11.822 48C34.387 445.436 33 450.543 33 456c0 17.227 13.773 31 31 31s31-13.773 31-31c0-5.457-1.387-10.564-3.822-15H36.822zm80 0c-2.435 4.436-3.822 9.543-3.822 15 0 17.227 13.773 31 31 31s31-13.773 31-31c0-5.457-1.387-10.564-3.822-15h-54.356zm81.74 0l15 30h84.875l15-30H198.563zm142.26 0c-2.435 4.436-3.822 9.543-3.822 15 0 17.227 13.773 31 31 31s31-13.773 31-31c0-5.457-1.387-10.564-3.822-15h-54.356zm80 0c-2.435 4.436-3.822 9.543-3.822 15 0 17.227 13.773 31 31 31s31-13.773 31-31c0-5.457-1.387-10.564-3.822-15h-54.356z"/></g></symbol>
  <symbol id="gi-robot" viewBox="0 0 512 512"><g fill="currentColor"><path fill="currentColor" d="M256.688 18.406c-29.86 0-54.44 21.716-58.875 50.282H315.53c-4.428-28.566-28.983-50.282-58.842-50.282zm-104.313 9.282L81.75 99.094c26.37 25.22 50.43 39.66 69.438 45.53 20.595 6.364 34.156 3.076 41.53-4.468 2.482-2.538 4.475-5.84 5.813-9.875-12.5-13.88-20.124-32.236-20.124-52.31 0-5.28.527-10.45 1.53-15.44-7.117-10.973-16.213-22.668-27.56-34.843zm208.594 0c-11.35 12.174-20.452 23.87-27.564 34.843 1.004 4.99 1.53 10.16 1.53 15.44.002 20.074-7.63 38.43-20.123 52.31 1.334 4.036 3.33 7.338 5.812 9.876 7.374 7.544 20.935 10.832 41.53 4.47 19.01-5.873 43.068-20.313 69.44-45.532l-70.626-71.406zM197.843 87.374c4.008 25.464 24.02 45.487 49.5 49.47v-49.47h-49.5zm68.187 0v49.47c25.476-3.983 45.466-24.006 49.47-49.47h-49.47zm-52.655 55.72c-1.93 3.73-4.352 7.127-7.28 10.124-7.01 7.17-16.34 11.444-27.157 12.843 17.245 30.84 47.478 45.278 77.718 45.187 30.135-.09 60.314-14.62 77.594-45.188-10.75-1.42-20.024-5.706-27-12.843-2.926-2.994-5.323-6.4-7.25-10.126-12.413 8.293-27.313 13.156-43.313 13.156-16 0-30.893-4.863-43.312-13.156zm-105.72.905c-11.884 8.09-22.142 17.595-30.03 28.47 5.18 1.992 10.066 5.204 14.47 9.374.287.273.557.562.843.844 7.992-10.844 19.192-20.188 33-28.188-5.933-2.94-12.04-6.43-18.282-10.5zm297.814.156c-6.274 4.077-12.418 7.563-18.376 10.5 13.946 8.04 25.26 17.42 33.312 28.28.26-.258.518-.527.78-.78 4.39-4.208 9.27-7.476 14.44-9.53-7.928-10.863-18.222-20.373-30.157-28.47zM65.405 188.844c-4.14.03-8.71 1.797-13.937 6.812-5.23 5.016-10.76 13.247-15.595 24.78-9.03 21.54-15.567 54.52-16.406 98.19h91.75c-.836-44.038-7.38-77.138-16.407-98.626-4.833-11.502-10.363-19.67-15.563-24.594-5.2-4.924-9.704-6.592-13.844-6.562zm382.656 0c-4.14.03-8.71 1.797-13.937 6.812-5.228 5.016-10.758 13.247-15.594 24.78-9.03 21.54-15.566 54.52-16.405 98.19h91.75c-.835-44.038-7.38-77.138-16.406-98.626-4.833-11.502-10.364-19.67-15.564-24.594-5.2-4.924-9.703-6.592-13.844-6.562zm-164.5 37.53c-8.798 2.334-17.828 3.536-26.875 3.564-9.09.027-18.16-1.13-27-3.438-5.288 5.608-8.437 12.862-8.437 20.656 0 17.25 15.35 31.844 35.438 31.844 20.087 0 35.437-14.593 35.437-31.844 0-7.854-3.2-15.155-8.563-20.78zm-76 41.94c-20.808 10.54-39.378 28.066-52.937 52.248 5.276 2.285 10.287 5.71 15 10.188 12.49-23.23 29.974-38.884 49.25-47.5-4.683-4.264-8.518-9.31-11.313-14.938zm98.157.248c-2.83 5.618-6.727 10.63-11.44 14.875 19.213 8.67 36.67 24.287 49.19 47.282.062-.06.123-.13.186-.19 4.588-4.308 9.586-7.692 14.844-9.967-13.558-23.972-32.056-41.42-52.78-52zm-166.595 67.375c-5.454-.038-11.282 2.203-17.688 8.22-6.405 6.016-13.017 15.817-18.812 29.5-7.377 17.416-13.346 41.16-16.72 70.937 8.495-4.2 17.876-6.245 27.19-6.22 14.79.043 29.66 5.315 40.968 16.032 9.487 8.993 16.182 21.848 18.093 37.563h23.25c-.856-52.36-8.71-91.89-19.656-117.783-11.6-27.438-25.718-38.173-36.625-38.25zm234.97 0c-5.455-.038-11.252 2.203-17.658 8.22-6.405 6.016-13.048 15.817-18.843 29.5-10.943 25.835-18.774 65.513-19.625 118.312h23.217c1.898-15.826 8.58-28.72 18.094-37.72 11.325-10.712 26.243-15.917 41.033-15.875 9.298.026 18.658 2.098 27.125 6.313-3.368-29.494-9.328-53.09-16.688-70.5-11.6-27.44-25.75-38.174-36.656-38.25zm-336.126 1.375c-1.03 3.895-1.02 8.08.186 12.22 3.82 13.102 19.167 21.597 34.532 17.812 15.24-3.754 23.346-17.03 19.75-30.03l-54.47-.002zm382.655 0c-1.028 3.895-1.02 8.08.188 12.22 3.818 13.102 19.166 21.597 34.53 17.812 15.24-3.754 23.347-17.03 19.75-30.03l-54.468-.002zM113.03 457.063c-10.365-.03-20.612 3.615-28.155 10.75-5.935 5.615-10.374 13.43-12.03 24.157h80.436c-1.664-10.603-6.128-18.377-12.06-24-7.56-7.167-17.823-10.878-28.19-10.908zm287.22 0c-10.366-.03-20.582 3.615-28.125 10.75-5.935 5.615-10.405 13.43-12.063 24.157H440.5c-1.665-10.603-6.13-18.377-12.063-24-7.56-7.167-17.82-10.878-28.187-10.908z"/></g></symbol>
  <symbol id="gi-module" viewBox="0 0 512 512"><g fill="currentColor"><path fill="currentColor" d="M23 23v466h466V23H23zm233 64c93.2 0 169 75.8 169 169s-75.8 169-169 169S87 349.2 87 256 162.8 87 256 87zm0 18c-83.5 0-151 67.5-151 151 0 71.3 49.2 130.9 115.5 146.8l13.9-27.8h43.2l13.9 27.8C357.8 386.9 407 327.3 407 256c0-83.5-67.5-151-151-151zm0 30c13.7 0 25 11.3 25 25s-11.3 25-25 25-25-11.3-25-25 11.3-25 25-25zm-80 89a32 32 0 0 1 32 32 32 32 0 0 1-32 32 32 32 0 0 1-32-32 32 32 0 0 1 32-32zm160 0a32 32 0 0 1 32 32 32 32 0 0 1-32 32 32 32 0 0 1-32-32 32 32 0 0 1 32-32zm-90.4 169l-6.5 13.1c5.5.6 11.2.9 16.9.9 5.7 0 11.4-.3 16.9-.9l-6.5-13.1h-20.8z"/></g></symbol>
  <symbol id="gi-speed" viewBox="0 0 512 512"><g fill="currentColor"><path fill="currentColor" d="M256 54.28c-124.603 0-226 101.398-226 226 0 47.864 14.975 92.293 40.465 128.876l29.79-19.86c-17.188-24.545-28.708-53.362-32.696-84.577H96v-18H66.115c-.07-2.14-.115-4.284-.115-6.44 0-45.378 15.816-86.97 42.236-119.598l17.4 17.4 12.727-12.727-18.133-18.132C152.735 114.057 197.335 92.8 247 90.498v29.22h18V90.5c49.665 2.302 94.265 23.56 126.77 56.725l-18.133 18.132 12.726 12.727 17.4-17.4c26.42 32.63 42.237 74.22 42.237 119.6 0 2.154-.044 4.3-.115 6.437H416v18h28.44c-3.987 31.214-15.507 60.03-32.694 84.575l29.79 19.86C467.025 372.574 482 328.146 482 280.282c0-124.602-101.397-226-226-226zm15.83 66.23a144 160 0 0 1 74.608 100.062l49.966-17.568a160 160 0 0 0-4.3-7.012l-5.135 5.153-30.368-30.29-5.76-5.746 7.85-7.874a160 160 0 0 0-86.862-36.726zm156.15 89.844l-175.332 60.6C240.505 272.618 231 283.155 231 295.72c0 13.7 11.3 25 25 25 6.77 0 12.95-2.764 17.473-7.208L427.98 210.354zm-16.513 32.322l-60.713 40.72a144 160 0 0 1-56.6 108.323h76.057a160 160 0 0 0 39.763-68.572H398.48v-52.515h17.022a160 160 0 0 0-4.035-27.957zM128 421.72v36h256v-36H128z"/></g></symbol>
  <symbol id="gi-efficiency" viewBox="0 0 512 512"><g fill="currentColor"><path fill="currentColor" d="M239.283 27.155l-29.615 59.229-12.412-37.23L153 71.281v20.125l33.742-16.87 19.59 58.767 34.387-68.77 47.998 80 35.308-70.613L359 91.407V71.282l-43.025-21.511-28.694 57.384zM89 70.845v46h46v-46zm288 0v46h46v-46zm-304 64v302h94v-112h178v112h94v-302h-79.973l-32 128H184.973l-32-128zm101.027 10l4.5 18h154.946l4.5-18zm8.5 34l4.5 18h137.946l4.5-18zm208.473 27c13.7 0 25 11.3 25 25s-11.3 25-25 25-25-11.3-25-25 11.3-25 25-25zm-336 .816l-30 20v146.184h30zm136.027 6.184l4.5 18h120.946l4.5-18zm199.973 57c13.7 0 25 11.3 25 25s-11.3 25-25 25-25-11.3-25-25 11.3-25 25-25zm66 57v46h30v-46zm-66 7c13.7 0 25 11.3 25 25s-11.3 25-25 25-25-11.3-25-25 11.3-25 25-25zm-206 9v46h17.438L224 345.72l34.467 68.931 9.804-9.806H327v-62zm39 43.127l-10.438 20.873H185v46h142v-30h-51.271l-22.194 22.193zm233 4.873v46h30v-46zm-390 64l-40 30h108v-30zm310 0v30h108l-40-30z"/></g></symbol>
  <symbol id="gi-productivity" viewBox="0 0 512 512"><g fill="currentColor"><path fill="currentColor" d="M384 64l.387 256H368l-96-128-16 128-96-128-16 128-96-128-16 128v160h448V64h-32v256h-32V64h-32zM64 352h48v32H64v-32zm80 0h48v32h-48v-32zm80 0h48v32h-48v-32zm80 0h48v32h-48v-32zM64 416h48v32H64v-32zm80 0h48v32h-48v-32zm80 0h48v32h-48v-32zm80 0h48v32h-48v-32z"/></g></symbol>
  <symbol id="gi-science" viewBox="0 0 512 512"><g fill="currentColor"><path fill="currentColor" d="M163.154 21.588l-97.39.047c.71 5.647 2.193 12.66 5.685 19.353 6.086 11.665 16.458 22.127 42.687 22.127 25.66 0 36.383-10.45 42.81-22.176 3.635-6.63 5.333-13.7 6.207-19.352zm144.838 0l-97.39.047c.71 5.647 2.193 12.66 5.685 19.353 6.087 11.665 16.458 22.127 42.688 22.127 25.66 0 36.383-10.45 42.81-22.176 3.635-6.63 5.333-13.698 6.207-19.352zm136.66 0l-97.39.047c.71 5.647 2.193 12.66 5.685 19.353 2.31 4.426 5.238 8.677 9.412 12.25.033.03.07.057.103.086.392.333.797.658 1.21.98.082.06.163.124.245.186.42.32.852.632 1.297.938l.12.084c.494.338 1.004.668 1.53.988.06.037.125.07.186.107.45.27.91.534 1.382.79.127.07.257.136.386.205.456.24.923.474 1.4.7.1.048.197.097.298.143.59.275 1.195.54 1.82.793l.096.04c.585.236 1.19.46 1.806.677.136.048.275.094.412.14.505.173 1.02.338 1.545.497.19.057.376.116.57.172.678.196 1.373.383 2.09.556.037.01.08.018.118.028.67.16 1.36.31 2.064.45.226.046.456.09.686.132.566.106 1.144.204 1.732.297.21.033.416.068.63.1.805.118 1.625.227 2.472.32.07.007.143.012.213.02.774.082 1.568.152 2.376.212.275.02.554.036.833.054.616.04 1.244.07 1.88.097.32.014.638.03.962.038.92.028 1.852.047 2.813.047.938 0 1.85-.02 2.748-.047.327-.01.648-.023.97-.037.633-.025 1.257-.058 1.87-.098.256-.017.514-.034.767-.053.87-.067 1.728-.143 2.56-.235.01-.002.018 0 .028-.002.833-.093 1.64-.204 2.434-.323.19-.028.38-.06.568-.09.624-.1 1.237-.207 1.838-.322.195-.037.39-.072.584-.11.742-.15 1.473-.31 2.18-.484.007 0 .014-.004.02-.005.724-.18 1.423-.37 2.11-.572.148-.043.292-.088.438-.133.56-.17 1.108-.348 1.645-.533.13-.045.264-.088.394-.135 1.315-.466 2.563-.977 3.745-1.53.083-.037.163-.077.244-.116.508-.24 1.004-.49 1.49-.747.095-.05.192-.1.287-.152 1.115-.602 2.17-1.242 3.166-1.917l.173-.12c.448-.308.884-.622 1.31-.943.06-.047.125-.093.187-.14 4.942-3.78 8.373-8.443 11.052-13.33 3.635-6.63 5.333-13.698 6.207-19.352zm-296.1 52.41c-5.537 2.877-11.877 5.112-19.058 6.44-.113 47.25-.436 120.64-.283 161.048.032 8.097-6.767 14.837-15.595 14.848-8.827.01-15.525-6.654-15.502-14.795v-.007c.09-40.075.358-113.676.303-161.138-7.104-1.327-13.368-3.528-18.826-6.358.027 104.356-.45 285.02-.598 357.54-.045 20.65 15.557 36.74 34.473 36.714 18.917-.03 34.696-16.216 34.625-36.817-.258-74.726.25-254.896.46-357.475zm144.837 0c-5.546 2.882-11.897 5.118-19.09 6.445-.132 36.89-.393 71.557-.25 109.024.03 8.096-6.77 14.837-15.6 14.847-8.826.01-15.524-6.656-15.5-14.796v-.004c.083-37.297.306-72.125.294-109.12-7.1-1.328-13.362-3.528-18.818-6.357.027 104.356-.45 285.02-.598 357.54-.045 20.65 15.56 36.74 34.475 36.714 18.916-.03 34.696-16.216 34.625-36.817-.258-74.726.25-254.896.46-357.475zm136.66 0c-5.534 2.876-11.872 5.11-19.048 6.438-.103 51.75-.45 165.517-.293 207.146.028 8.096-6.77 14.837-15.597 14.848-8.827.01-15.524-6.656-15.502-14.797v-.002c.094-41.295.387-154.942.308-207.234-7.106-1.326-13.373-3.528-18.832-6.36.027 104.357-.45 285.022-.598 357.542-.045 20.648 15.56 36.738 34.475 36.713 18.916-.03 34.696-16.216 34.625-36.817-.258-74.726.25-254.896.46-357.475zM17.68 98.2v51.755h43.177c.023-17.875.048-35.785.055-51.754H17.68zm149.507 0c-.036 16.48-.067 32.794-.11 51.755h38.616c.022-17.875.048-35.785.055-51.754h-38.56zm144.836 0c-.036 16.48-.067 32.794-.11 51.755h30.44c.023-17.875.048-35.785.055-51.754h-30.385zm136.66 0c-.036 16.48-.067 32.794-.11 51.755h43.833V98.2h-43.722zM17.68 443.44v51.755h474.726v-51.755H447.02c-5.244 24.68-26.506 43.5-52.032 43.54h-.002c-25.566.034-46.75-18.834-51.95-43.54H310.36c-5.244 24.68-26.506 43.5-52.032 43.54h-.002c-25.566.034-46.75-18.834-51.95-43.54h-40.85c-5.246 24.68-26.508 43.5-52.034 43.54h-.002c-25.566.034-46.75-18.834-51.95-43.54H17.68z"/></g></symbol>
  <symbol id="gi-drill" viewBox="0 0 512 512"><g fill="currentColor"><path fill="currentColor" d="M48.148 49c-9 0-14.776 3.864-19.793 11.29-5.017 7.424-8.323 18.56-9.234 30.4-.91 11.838.52 24.33 3.814 34.214 3.079 9.236 7.783 15.602 12.288 18.367 28.96 2.58 66.314 2.689 82.671 28.96 11.82 42.442-15.348 94.133-25.816 130.769h74.55l-5.064-89.941 23.168-4.729 14.12-58.926 64.296 7.219V49zm233 0v98.916l30-.453V49zm48 16v62h30V65zm-274 2h178v60h-178zm322 .525v56.95l46-11.5v-33.95zM73.148 85v24h142V85zm368 0v18h52V85h-9zm-228.5 84.064l-8.841 36.907 17.925-1.532c-1.87-15.08 1.338-23.637 10.96-33.125zM89.148 321v32H52.965l-20 30h244.879l-11.823-30h-98.873v-32zm-64 80v62h237.608l16.584-62z"/></g></symbol>
  <symbol id="gi-furnace" viewBox="0 0 512 512"><g fill="currentColor"><path fill="currentColor" d="M183.8 25l-13.4 94h171.2l-13.4-94H183.8zm-79.5 112L73.82 487H438.2l-30.5-350H104.3zm30.7 62h242v48h32v114h-32v48H135V199zm18 18v174h206v-30h-16V247h16v-30H153zm30 16h146v112H183V233zm74.2 10.7c-6.5 22-24.5 43.6-13.6 66.1-17.8-9.5-20.2-25.1-23.4-40.6-2.2 15.5-9.3 30.8-6.8 45.4-6.3-4.6-11.6-10.9-18.2-18 7 28.2 7.9 35.8 31.8 37.4h51.5c32.1-3.6 26.8-21.3 41-38.2-12.7.4-18.9 4.5-25.8 12.3 10.3-18.7-1.5-18.9-2.7-34.3-5.1 9.8-16.9 20.7-23.3 18.6-8.5-2.6-9.3-30.7-10.5-48.7zM361 265v78h30v-78h-30zM183 432h18v32h-18v-32zm64 0h18v32h-18v-32zm64 0h18v32h-18v-32z"/></g></symbol>
  <symbol id="gi-pump" viewBox="0 0 512 512"><g fill="currentColor"><path fill="currentColor" d="M325.9 23.981L311.94 45.25c38.182 24.845 67.675 59.024 96.878 123.178l16.828-24.807c-5.155-17.403-10.801-35.86-16-51.351-5.597-16.682-11.538-30.866-13.105-33.194-1.32-1.96-10.748-9.452-24.53-16.34-12.285-6.14-28.272-12.655-46.11-18.754zm8.33 61.53l-54.46 42.994c10.761 6.175 18.5 17.082 20.314 29.828l57.5-45.396c-7.522-10.489-15.238-19.485-23.354-27.426zm-74.73 55.578c-12.81 0-23 10.19-23 23 0 12.809 10.19 23 23 23s23-10.191 23-23c0-12.81-10.19-23-23-23zm-39.342 34.476L87.49 280.304c11.838 4.67 20.406 16.013 20.975 29.306L244.5 202.214c-11.676-4.635-20.766-14.492-24.342-26.649zm174.342 4.448v210.006h18V195.063l-7.082 10.44-6.453-15.219a682.592 682.592 0 0 0-4.465-10.271zm-92.637.543L286.047 192.8l3.793 18.015-14.526-9.707-15.01 11.621 28.796 19.243-71.305 32.832 4.82-22.897-21.976 17.014-24.354 115.678-.44.195.272.61-19.92 94.615H140.5v18h222V468.58zm-4.226 67.3l12.02 57.088-79.057-26.218zm-85.477 43.717l86.432 28.666-102.012 45.338zM75.5 296.02c-8.39 0-15 6.609-15 15 0 8.39 6.61 15 15 15s15-6.61 15-15c0-8.391-6.61-15-15-15zm239.945 36.427l14.953 71.028-111.953-27.916zm-218.824 3.852c-4.595 3.851-10.24 6.481-16.42 7.377l21.266 46.344h19.804zm-42.232.008l-24.66 53.713h19.808l21.276-46.342c-6.181-.893-11.828-3.521-16.424-7.371zm137.574 51.2l116.781 29.118-133.101 48.403zM28.5 408.018v62h94v-62zm352 0v16h46v-16zm-45.324 18.15l9.232 43.85h-129.82zm45.324 15.85v28h46v-28zm64 28v18h39v-18z"/></g></symbol>
  <symbol id="gi-refinery" viewBox="0 0 512 512"><g fill="currentColor"><path fill="currentColor" d="M291.17 16.975c-5.923.122-11.645 2.246-16.06 7.398-17.652 20.61-13.472 36.05-10.667 42.856 16.607-51.264 33.81-5.23 55.442-25.076 8.615-7.904-10.947-25.546-28.715-25.18zM208 67.107c-19.994.235-33.533 26.42-25.31 33.495 22.252 19.138 32.473-26.055 58.884-4.803-6.212-13.538-13.58-28.927-33.574-28.693zm93.832 8.967c-12.564.318-21.72 9.49-29.832 17.832 32-11.19 26.51 34.82 53.883 24.23 10.118-3.914 6.12-33.12-12.643-40.032-4.104-1.512-7.89-2.12-11.408-2.03zM247 106.107v32h-30.38l-6.4 32H199v18h7.62l-15.417 77.09-1.594.91H176v18h11.422l-34.8 174H128v18h256v-18h-24.62l-34.802-174H336v-18h-13.61l-1.593-.91-15.418-77.09H313v-18h-11.22l-6.4-32H265v-32h-18zm-15.62 50H247v14h-18.42l2.8-14zm33.62 0h15.62l2.8 14H265v-14zm-40.02 32H247v34.92l-26.03-14.875 4.01-20.045zm40.02 0h22.02l4.01 20.045L265 223.027v-34.92zm-47.752 38.65l20.61 11.778-25.928 14.82 5.318-26.597zm77.504 0l5.318 26.597-25.93-14.82 20.612-11.776zM247 254.046v12.062h-21.11L247 254.045zm18 0l21.11 12.062H265v-12.062zm-59.22 30.062H247v47.846l-47.615-15.87 6.394-31.976zm59.22 0h41.22l6.407 32.028L265 332.61v-48.503zm-69.172 49.762l33.38 11.126-38.253 13.234 4.873-24.36zm120.36.08l4.515 22.57-35.525-11.84 31.01-10.73zM265 356.925l48.54 16.18L265 399.58v-42.656zm-18 .963v41.692l-46.77-25.512L247 357.89zm-61.688 28.55l51.893 28.302-64.6 35.237 12.708-63.54zm141.375 0l12.708 63.54-64.598-35.238 51.89-28.303zM247 429.903v28.203h-51.705L247 429.904zm18 0l51.705 28.203H265v-28.203z"/></g></symbol>
  <symbol id="gi-chemical-plant" viewBox="0 0 512 512"><g fill="currentColor"><path fill="currentColor" d="M99.5 18.406V92.22h321.594V18.405H99.5zm24.75 92.5v288.531h18.688v-288.53H124.25zm253.406 0v288.531h18.688v-288.53h-18.688zm-216.47 58.53v230l199.033.002v-230h-43.5c-.717 8.933-8.194 15.937-17.314 15.937s-16.596-7.004-17.312-15.938H267.75c.968 3.02 1.5 6.223 1.5 9.563 0 17.317-14.058 31.344-31.375 31.344S206.53 196.317 206.53 179c0-3.34.535-6.542 1.5-9.563h-46.843zm138.095 30.845c24.18 0 43.783 19.603 43.783 43.782 0 24.18-19.602 43.782-43.782 43.782-24.178 0-43.78-19.602-43.78-43.78 0-24.18 19.602-43.783 43.78-43.783zm-81.25 20.814c14.265 0 25.814 11.58 25.814 25.844 0 14.264-11.55 25.812-25.813 25.812-14.263 0-25.843-11.548-25.843-25.813 0-14.264 11.58-25.843 25.844-25.843zm68.564 79.344c14.264 0 25.844 11.58 25.844 25.843 0 14.265-11.58 25.814-25.844 25.814-14.264 0-25.813-11.55-25.813-25.813 0-14.263 11.55-25.842 25.814-25.842zM99.5 418.125v73.844h321.594v-73.845H99.5z"/></g></symbol>
  <symbol id="gi-factory" viewBox="0 0 512 512"><g fill="currentColor"><path fill="currentColor" d="M384 64l.387 256H368l-96-128-16 128-96-128-16 128-96-128-16 128v160h448V64h-32v256h-32V64h-32zM64 352h48v32H64v-32zm80 0h48v32h-48v-32zm80 0h48v32h-48v-32zm80 0h48v32h-48v-32zM64 416h48v32H64v-32zm80 0h48v32h-48v-32zm80 0h48v32h-48v-32zm80 0h48v32h-48v-32z"/></g></symbol>
  <symbol id="gi-lab" viewBox="0 0 512 512"><g fill="currentColor"><path fill="currentColor" d="M103.8 54.7v16.7h70.9V54.7h-70.9zm116.7 0v16.7h71V54.7h-71zm116.8 0v16.7h70.9V54.7h-70.9zM116.8 88.8V138h44.9V88.8h-44.9zm116.7 0V138h45V88.8h-45zm116.8 0V138h44.9V88.8h-44.9zM38.47 156.4v34.4h19.72V429H38.47v40H473.5v-40h-19.7V190.8h19.7v-34.4H38.47zm44.72 34.4H428.8v120.8H83.19V190.8zm33.61 18.3v85.3h44.9v-85.3h-44.9zm116.7 0v85.3h45v-85.3h-45zm116.8 0v85.3h44.9v-85.3h-44.9zM83.19 335.5H428.8V414H83.19v-78.5zm33.61 17.3V373c0 5.9 2.4 11.6 6.6 15.9 4.2 4.2 9.9 6.5 15.9 6.5 5.9 0 11.6-2.3 15.8-6.5 4.3-4.3 6.6-10 6.6-15.9v-20.2h-44.9zm116.7 0V373c0 5.9 2.4 11.6 6.6 15.9 4.2 4.2 9.9 6.5 15.9 6.5s11.7-2.3 15.9-6.5c4.2-4.3 6.6-10 6.6-15.9v-20.2h-45zm116.8 0V373c0 5.9 2.3 11.6 6.6 15.9 4.2 4.2 9.9 6.5 15.8 6.5 6 0 11.7-2.3 15.9-6.5 4.2-4.3 6.6-10 6.6-15.9v-20.2h-44.9z"/></g></symbol>
  <symbol id="gi-warehouse" viewBox="0 0 512 512"><g fill="currentColor"><path fill="currentColor" d="M41 41v62h30V41H41zm48 0v62h30V41H89zm48 0v62h30V41h-30zm222 7v71H16v18h343v174H16v18h343v167h18v-39h62v39h18V329h39v-18h-39V137h39v-18h-39V48h-18v71h-62V48h-18zM185 73v30h158V73H185zm192 64h62v46h-62v-46zm-240 16v142h46V153h-46zm-41 16c-12.81 0-23 10.19-23 23s10.19 23 23 23 23-10.19 23-23-10.19-23-23-23zm105 16v110h110V185H201zm176 16h62v46h-62v-46zM41 233v62h78v-62H41zm336 32h62v46h-62v-46zm0 64h62v46h-62v-46zm-137 24c-8.39 0-15 6.61-15 15s6.61 15 15 15 15-6.61 15-15-6.61-15-15-15zm137 40h62v46h-62v-46zm-352 8v94h254v-94H25zm228.977 14.23 4.046 17.54-208 48-4.046-17.54 208-48zM297 449v46h46v-46h-46z"/></g></symbol>
  <symbol id="gi-power" viewBox="0 0 512 512"><g fill="currentColor"><path fill="currentColor" d="M239.283 27.155l-29.615 59.229-12.412-37.23L153 71.281v20.125l33.742-16.87 19.59 58.767 34.387-68.77 47.998 80 35.308-70.613L359 91.407V71.282l-43.025-21.511-28.694 57.384zM89 70.845v46h46v-46zm288 0v46h46v-46zm-304 64v302h94v-112h178v112h94v-302h-79.973l-32 128H184.973l-32-128zm101.027 10l4.5 18h154.946l4.5-18zm8.5 34l4.5 18h137.946l4.5-18zm208.473 27c13.7 0 25 11.3 25 25s-11.3 25-25 25-25-11.3-25-25 11.3-25 25-25zm-336 .816l-30 20v146.184h30zm136.027 6.184l4.5 18h120.946l4.5-18zm199.973 57c13.7 0 25 11.3 25 25s-11.3 25-25 25-25-11.3-25-25 11.3-25 25-25zm66 57v46h30v-46zm-66 7c13.7 0 25 11.3 25 25s-11.3 25-25 25-25-11.3-25-25 11.3-25 25-25zm-206 9v46h17.438L224 345.72l34.467 68.931 9.804-9.806H327v-62zm39 43.127l-10.438 20.873H185v46h142v-30h-51.271l-22.194 22.193zm233 4.873v46h30v-46zm-390 64l-40 30h108v-30zm310 0v30h108l-40-30z"/></g></symbol>
  <symbol id="gi-solar" viewBox="0 0 512 512"><g fill="currentColor"><path fill="currentColor" d="M219.615 401.84h16v88.06h-16v-88.06zm219.94-271.6l21.83-13.18-21.82-13.16 16-19.8-25-4.88 8.25-24.12-25.19 4-.46-25.49-22.28 12.29-9.18-23.8-16.7 19.24-16.78-19.24-9.22 23.8-22.3-12.31-.46 25.49-25.19-4 8.25 24.12-25 4.88 16 19.8-21.83 13.18 21.83 13.14h33.41l29.29 76.34 12-13.76 16.74 19.24 9.17-23.76 22.3 12.31.46-25.49 25.19 4-8.28-24.18 25-4.88zm-254.55 46.31h-91l31 80.85h91zm108.25 0h-91l30.94 80.85h91zm-70.81 97.42h-91l30.94 80.85h91zm108.25 0h-91l30.94 80.85h91zm73.89 111.87h-262.22L50.615 146.2h262.1zm-19.69-15l-43.31-112.87-37.28-97.42H70.785l80.47 210.27h233.68z"/></g></symbol>
  <symbol id="gi-nuclear-plant" viewBox="0 0 512 512"><g fill="currentColor"><path fill="currentColor" d="M13.447 18l4.826 20.656c17.47 32.683 68.819 20.747 94.545-1.635-14.136 38.399-65.72 49.25-95.964 26.354-.794 11.045 1.01 18.688 4.326 23.547 4.729 6.93 13.658 10.949 30.021 11.203l12.475.193-4.12 11.778c-5.347 15.288-4.928 23.375-1.91 28.478 1.975 3.337 6.034 6.533 12.678 9.545 40.193-8.27 83.572-9.067 121.676-9.119 28.214 0 56.41 1.001 79.78 3.033 23.37 2.032 41.025 4.306 52.245 9.916 10.816 5.781 25.574 5.525 36.207 3.994 9.222-1.415 16.325-4.613 21.387-10.853 3.954-4.874 7.015-12.152 7.9-23.31-33.606 4.231-67.935-8.9-76.294-47.872 40.54 37.963 82.92 42.849 131.005 16.412 11.444-6.49 18.25-14.805 20.485-27.605l1.392-7.975 8.079.543c7.79.524 14.336.366 19.814-.267V18h-21.979c-20.534 43.036-74.988 67.68-115.3 21.922 29.23 13.223 71.841 14.87 94.744-21.922H13.447zm270.645 29.957c-7.744 21.146-22.92 44.73-47.414 51.688-26.23 34.754-92.726 38.651-119.86-17.305 20.443 24.144 61.662 34.958 91.328 17.668-27.204-8.009-48.057-46.875-46.736-47.535 0 2.077 41.737 29.713 57.897 29.654 25.989.029 43.257-14.207 64.785-34.17zM494 72.945c-4.196.368-8.676.507-13.467.412-4.623 14.341-14.644 25.372-27.422 32.62-12.914 7.325-28.605 11.249-45.64 13.244-.675 15.828-4.645 28.298-11.873 37.209-8.483 10.457-20.558 15.453-32.637 17.306-12.578 1.93-25.722.924-37.504-.76a236.7 236.7 0 0 0-4.86 21.258C338.19 192.74 359.193 192 380.23 192c21.401 0 42.782.76 60.555 2.309 16.293 1.419 28.797 2.843 37.914 6.648 5.832-1.888 11.047-3.878 15.301-6.03v-22.613c-24.68 10.243-52.42 3.068-67.861-28.8 16.333 12.485 44.326 23.76 67.861 8.746V72.945zM192 157c-40.75 1.88-77.826-.767-116.965 8.832 28.05 96.266-1.687 216.838-32.195 309.791 11.247 5.175 30.635 10.198 53.91 13.465C124.683 493.008 158.353 495 192 495s67.317-1.992 95.25-5.912c23.275-3.267 42.663-8.29 53.91-13.465-30.508-92.953-60.246-213.525-32.195-309.791-8.367-2.095-22.342-4.439-38.744-5.865C247.59 157.999 219.786 157 192 157zm188.23 53c-20.97 0-41.962.757-58.994 2.24-1.125.098-2.22.207-3.308.317-8.896 79.06 12.998 172.267 37.445 248.76 8.189.323 16.517.501 24.857.501 25.373 0 50.765-1.507 71.762-4.459 16.35-2.298 30.045-5.83 38.403-9.298-22.686-69.604-44.617-159.096-24.422-231.875-6.263-1.396-15.673-2.981-26.748-3.946-17.032-1.483-38.023-2.24-58.995-2.24zm-141.335 28.21c29.289 17.126 45.21 48.33 44.464 80.056l-61.252-6c-.43-7.908-4.625-15.474-11.837-19.84l28.625-54.215zm-92.956 1.12l27.79 52.514a24.504 24.504 0 0 0-9.616 9.347 24.489 24.489 0 0 0-3.258 11.075l-57.384 6c-.42-16.048 3.166-32.448 11.78-47.37 7.723-13.372 18.408-23.987 30.688-31.566zm45.895 64.092c3.515.034 5.522.778 7.762 2.07a16.161 16.161 0 0 1 5.933 22.162 16.144 16.144 0 0 1-22.146 5.934 16.165 16.165 0 0 1-5.947-22.162c2.815-4.876 8.244-7.778 12.794-7.975a30.402 30.402 0 0 1 1.604-.03zm12.478 43.203l31.467 48.578c-13.778 7.362-29.255 11.298-44.92 10.89-14.368-.372-28.682-4.176-42.029-11.782l30.828-47.12c7.95 4.349 17.346 3.852 24.655-.566z"/></g></symbol>
  <symbol id="gi-roboport" viewBox="0 0 512 512"><g fill="currentColor"><path fill="currentColor" d="M81 21.499c-12.81 0-23 10.192-23 23.002 0 12.81 10.19 23 23 23s23.002-10.19 23.002-23S93.81 21.499 81 21.499zm350 0c-12.81 0-23.002 10.192-23.002 23.002 0 12.81 10.192 23 23.002 23 12.81 0 23-10.19 23-23s-10.19-23.002-23-23.002zM110.18 73.212a41.25 41.25 0 0 1-15.11 9.781l28.666 45.867 14.983-9.988zm291.64 0l-28.539 45.66 14.983 9.988 28.666-45.867a41.25 41.25 0 0 1-15.11-9.781zm-242.966 53.87l-36.143 24.095 6.652 19.955c9.215-12.422 23.339-21.987 39.614-28.912 1.172-.5 2.37-.973 3.568-1.448zm194.292 0l-13.69 13.69c1.197.475 2.395.949 3.567 1.448 16.275 6.925 30.399 16.49 39.614 28.912l6.652-19.955zM256 144.5c-29 0-58.021 4.939-79.977 14.281-21.898 9.319-35.908 22.38-39.164 38.364L106.28 426.5h299.442l-30.58-229.355c-3.256-15.984-17.266-29.045-39.164-38.364C314.02 149.44 285 144.501 256 144.501zm-64 58c31.373 0 57 25.627 57 57s-25.627 57-57 57-57-25.627-57-57 25.627-57 57-57zm128 0c31.373 0 57 25.627 57 57s-25.627 57-57 57-57-25.627-57-57 25.627-57 57-57zm-128.549 16.023c-22.754 0-41.547 18.366-41.547 40.977 0 22.611 18.793 40.977 41.547 40.977 22.754 0 41.549-18.366 41.549-40.977 0-22.611-18.795-40.977-41.549-40.977zm128 0c-22.754 0-41.547 18.366-41.547 40.977 0 22.611 18.793 40.977 41.547 40.977 22.754 0 41.549-18.366 41.549-40.977 0-22.611-18.795-40.977-41.549-40.977zm-128 17.998c13.198 0 23.549 10.269 23.549 22.979 0 12.71-10.35 22.978-23.549 22.978-13.198 0-23.549-10.268-23.549-22.978s10.351-22.979 23.55-22.979zm128 0c13.198 0 23.549 10.269 23.549 22.979 0 12.71-10.35 22.978-23.549 22.978-13.198 0-23.549-10.268-23.549-22.978s10.351-22.979 23.55-22.979zM208 330.501h96v18h-96zm-16 32h128v18H192zm-16 32h160v18H176zm-103 50v46h46v-46zm64 0v46h46v-46zm64 0v46h46v-46zm64 0v46h46v-46zm64 0v46h46v-46zm64 0v46h46v-46z"/></g></symbol>
  <symbol id="gi-beacon" viewBox="0 0 512 512"><g fill="currentColor"><path fill="currentColor" d="M252.78 20.875c-1.302.012-2.6.03-3.905.063-37.928.974-76.148 11.153-111.28 31.437C25.164 117.285-13.41 261.322 51.5 373.75s208.946 151.036 321.375 86.125c77.7-44.86 120.1-127.513 117.47-211.406-3.563 65.847-35.898 128.573-91 169.374-10.828 9.62-22.774 18.315-35.814 25.844-103.68 59.86-235.983 24.4-295.842-79.282-59.86-103.68-24.43-235.984 79.25-295.844 35.64-20.576 74.67-29.88 112.968-29.03 63.304 1.4 124.623 30.57 165.438 82.53l-32.594 23.032c-33.27-42.835-84.01-66.6-136.063-67-.96-.008-1.91-.012-2.875 0-.964.01-1.943.038-2.906.062-28.006.717-56.222 8.215-82.156 23.188-82.99 47.914-111.508 154.322-63.594 237.312 47.914 82.99 154.32 111.51 237.313 63.594 51.37-29.66 81.862-81.724 86.28-136.78-12.53 45.37-42.32 86.745-85.438 114.186-.02.013-.043.018-.062.03l-.344.22c-3.16 2.147-6.42 4.216-9.78 6.156-74.245 42.865-168.918 17.494-211.782-56.75-42.864-74.243-17.493-168.917 56.75-211.78 23.2-13.396 48.39-20.122 73.375-20.782 47.953-1.266 95.138 19.858 125.968 59.156l-39.844 28.156c-20.232-24.32-50.055-37.79-80.594-38.03-1.17-.01-2.33 0-3.5.03-17.035.432-34.176 4.995-49.938 14.094-50.435 29.12-67.806 93.877-38.687 144.313 29.12 50.434 93.908 67.806 144.344 38.686 21.245-12.267 36.623-30.85 45.124-52.03-18.815 21.064-44.364 36.888-73.938 44.155-.04.013-.084.02-.125.033-37.507 10.787-78.796-4.816-99.217-40.188-24.07-41.688-9.845-94.712 31.843-118.78 13.028-7.523 27.143-11.314 41.156-11.69 25.66-.685 50.898 10.098 68.188 30.25l-41 28.97c-5.497-4.796-12.664-7.72-20.53-7.72-17.277 0-31.283 14.007-31.283 31.282 0 17.276 14.004 31.282 31.282 31.282 17.277 0 31.28-14.007 31.28-31.283 0-1.187-.06-2.347-.188-3.5l120.094-57.312 4.03-1.75-.06-.156 62.25-29.72 9.25-4.438-5.282-8.812-19.97-33.375-5.155-8.625-8.25 5.813-8.095 5.718c-45.9-58.864-116.14-91.053-187.844-90.405z"/></g></symbol>
</svg>
